%TF.GenerationSoftware,KiCad,Pcbnew,10.0.4*%
%TF.CreationDate,2026-08-10T16:15:37+12:00*%
%TF.ProjectId,ESP32 vario,45535033-3220-4766-9172-696f2e6b6963,rev?*%
%TF.SameCoordinates,Original*%
%TF.FileFunction,Legend,Top*%
%TF.FilePolarity,Positive*%
%FSLAX46Y46*%
G04 Gerber Fmt 4.6, Leading zero omitted, Abs format (unit mm)*
G04 Created by KiCad (PCBNEW 10.0.4) date 2026-08-10 16:15:37*
%MOMM*%
%LPD*%
G01*
G04 APERTURE LIST*
%ADD10C,0.100000*%
%ADD11C,0.150000*%
%ADD12C,0.120000*%
G04 APERTURE END LIST*
D10*
X111308646Y-132572419D02*
X111546741Y-133572419D01*
X111546741Y-133572419D02*
X111737217Y-132858133D01*
X111737217Y-132858133D02*
X111927693Y-133572419D01*
X111927693Y-133572419D02*
X112165789Y-132572419D01*
X112927693Y-133524800D02*
X112832455Y-133572419D01*
X112832455Y-133572419D02*
X112641979Y-133572419D01*
X112641979Y-133572419D02*
X112546741Y-133524800D01*
X112546741Y-133524800D02*
X112499122Y-133429561D01*
X112499122Y-133429561D02*
X112499122Y-133048609D01*
X112499122Y-133048609D02*
X112546741Y-132953371D01*
X112546741Y-132953371D02*
X112641979Y-132905752D01*
X112641979Y-132905752D02*
X112832455Y-132905752D01*
X112832455Y-132905752D02*
X112927693Y-132953371D01*
X112927693Y-132953371D02*
X112975312Y-133048609D01*
X112975312Y-133048609D02*
X112975312Y-133143847D01*
X112975312Y-133143847D02*
X112499122Y-133239085D01*
X113546741Y-133572419D02*
X113451503Y-133524800D01*
X113451503Y-133524800D02*
X113403884Y-133429561D01*
X113403884Y-133429561D02*
X113403884Y-132572419D01*
X114070551Y-133572419D02*
X113975313Y-133524800D01*
X113975313Y-133524800D02*
X113927694Y-133429561D01*
X113927694Y-133429561D02*
X113927694Y-132572419D01*
X114451504Y-133572419D02*
X114451504Y-132905752D01*
X114451504Y-132572419D02*
X114403885Y-132620038D01*
X114403885Y-132620038D02*
X114451504Y-132667657D01*
X114451504Y-132667657D02*
X114499123Y-132620038D01*
X114499123Y-132620038D02*
X114451504Y-132572419D01*
X114451504Y-132572419D02*
X114451504Y-132667657D01*
X114927694Y-132905752D02*
X114927694Y-133572419D01*
X114927694Y-133000990D02*
X114975313Y-132953371D01*
X114975313Y-132953371D02*
X115070551Y-132905752D01*
X115070551Y-132905752D02*
X115213408Y-132905752D01*
X115213408Y-132905752D02*
X115308646Y-132953371D01*
X115308646Y-132953371D02*
X115356265Y-133048609D01*
X115356265Y-133048609D02*
X115356265Y-133572419D01*
X116261027Y-132905752D02*
X116261027Y-133715276D01*
X116261027Y-133715276D02*
X116213408Y-133810514D01*
X116213408Y-133810514D02*
X116165789Y-133858133D01*
X116165789Y-133858133D02*
X116070551Y-133905752D01*
X116070551Y-133905752D02*
X115927694Y-133905752D01*
X115927694Y-133905752D02*
X115832456Y-133858133D01*
X116261027Y-133524800D02*
X116165789Y-133572419D01*
X116165789Y-133572419D02*
X115975313Y-133572419D01*
X115975313Y-133572419D02*
X115880075Y-133524800D01*
X115880075Y-133524800D02*
X115832456Y-133477180D01*
X115832456Y-133477180D02*
X115784837Y-133381942D01*
X115784837Y-133381942D02*
X115784837Y-133096228D01*
X115784837Y-133096228D02*
X115832456Y-133000990D01*
X115832456Y-133000990D02*
X115880075Y-132953371D01*
X115880075Y-132953371D02*
X115975313Y-132905752D01*
X115975313Y-132905752D02*
X116165789Y-132905752D01*
X116165789Y-132905752D02*
X116261027Y-132953371D01*
X116594361Y-132905752D02*
X116975313Y-132905752D01*
X116737218Y-132572419D02*
X116737218Y-133429561D01*
X116737218Y-133429561D02*
X116784837Y-133524800D01*
X116784837Y-133524800D02*
X116880075Y-133572419D01*
X116880075Y-133572419D02*
X116975313Y-133572419D01*
X117451504Y-133572419D02*
X117356266Y-133524800D01*
X117356266Y-133524800D02*
X117308647Y-133477180D01*
X117308647Y-133477180D02*
X117261028Y-133381942D01*
X117261028Y-133381942D02*
X117261028Y-133096228D01*
X117261028Y-133096228D02*
X117308647Y-133000990D01*
X117308647Y-133000990D02*
X117356266Y-132953371D01*
X117356266Y-132953371D02*
X117451504Y-132905752D01*
X117451504Y-132905752D02*
X117594361Y-132905752D01*
X117594361Y-132905752D02*
X117689599Y-132953371D01*
X117689599Y-132953371D02*
X117737218Y-133000990D01*
X117737218Y-133000990D02*
X117784837Y-133096228D01*
X117784837Y-133096228D02*
X117784837Y-133381942D01*
X117784837Y-133381942D02*
X117737218Y-133477180D01*
X117737218Y-133477180D02*
X117689599Y-133524800D01*
X117689599Y-133524800D02*
X117594361Y-133572419D01*
X117594361Y-133572419D02*
X117451504Y-133572419D01*
X118213409Y-132905752D02*
X118213409Y-133572419D01*
X118213409Y-133000990D02*
X118261028Y-132953371D01*
X118261028Y-132953371D02*
X118356266Y-132905752D01*
X118356266Y-132905752D02*
X118499123Y-132905752D01*
X118499123Y-132905752D02*
X118594361Y-132953371D01*
X118594361Y-132953371D02*
X118641980Y-133048609D01*
X118641980Y-133048609D02*
X118641980Y-133572419D01*
X119880076Y-133572419D02*
X119880076Y-132572419D01*
X119880076Y-132572419D02*
X120261028Y-132572419D01*
X120261028Y-132572419D02*
X120356266Y-132620038D01*
X120356266Y-132620038D02*
X120403885Y-132667657D01*
X120403885Y-132667657D02*
X120451504Y-132762895D01*
X120451504Y-132762895D02*
X120451504Y-132905752D01*
X120451504Y-132905752D02*
X120403885Y-133000990D01*
X120403885Y-133000990D02*
X120356266Y-133048609D01*
X120356266Y-133048609D02*
X120261028Y-133096228D01*
X120261028Y-133096228D02*
X119880076Y-133096228D01*
X121308647Y-133572419D02*
X121308647Y-133048609D01*
X121308647Y-133048609D02*
X121261028Y-132953371D01*
X121261028Y-132953371D02*
X121165790Y-132905752D01*
X121165790Y-132905752D02*
X120975314Y-132905752D01*
X120975314Y-132905752D02*
X120880076Y-132953371D01*
X121308647Y-133524800D02*
X121213409Y-133572419D01*
X121213409Y-133572419D02*
X120975314Y-133572419D01*
X120975314Y-133572419D02*
X120880076Y-133524800D01*
X120880076Y-133524800D02*
X120832457Y-133429561D01*
X120832457Y-133429561D02*
X120832457Y-133334323D01*
X120832457Y-133334323D02*
X120880076Y-133239085D01*
X120880076Y-133239085D02*
X120975314Y-133191466D01*
X120975314Y-133191466D02*
X121213409Y-133191466D01*
X121213409Y-133191466D02*
X121308647Y-133143847D01*
X121784838Y-133572419D02*
X121784838Y-132905752D01*
X121784838Y-133096228D02*
X121832457Y-133000990D01*
X121832457Y-133000990D02*
X121880076Y-132953371D01*
X121880076Y-132953371D02*
X121975314Y-132905752D01*
X121975314Y-132905752D02*
X122070552Y-132905752D01*
X122832457Y-133572419D02*
X122832457Y-133048609D01*
X122832457Y-133048609D02*
X122784838Y-132953371D01*
X122784838Y-132953371D02*
X122689600Y-132905752D01*
X122689600Y-132905752D02*
X122499124Y-132905752D01*
X122499124Y-132905752D02*
X122403886Y-132953371D01*
X122832457Y-133524800D02*
X122737219Y-133572419D01*
X122737219Y-133572419D02*
X122499124Y-133572419D01*
X122499124Y-133572419D02*
X122403886Y-133524800D01*
X122403886Y-133524800D02*
X122356267Y-133429561D01*
X122356267Y-133429561D02*
X122356267Y-133334323D01*
X122356267Y-133334323D02*
X122403886Y-133239085D01*
X122403886Y-133239085D02*
X122499124Y-133191466D01*
X122499124Y-133191466D02*
X122737219Y-133191466D01*
X122737219Y-133191466D02*
X122832457Y-133143847D01*
X123737219Y-132905752D02*
X123737219Y-133715276D01*
X123737219Y-133715276D02*
X123689600Y-133810514D01*
X123689600Y-133810514D02*
X123641981Y-133858133D01*
X123641981Y-133858133D02*
X123546743Y-133905752D01*
X123546743Y-133905752D02*
X123403886Y-133905752D01*
X123403886Y-133905752D02*
X123308648Y-133858133D01*
X123737219Y-133524800D02*
X123641981Y-133572419D01*
X123641981Y-133572419D02*
X123451505Y-133572419D01*
X123451505Y-133572419D02*
X123356267Y-133524800D01*
X123356267Y-133524800D02*
X123308648Y-133477180D01*
X123308648Y-133477180D02*
X123261029Y-133381942D01*
X123261029Y-133381942D02*
X123261029Y-133096228D01*
X123261029Y-133096228D02*
X123308648Y-133000990D01*
X123308648Y-133000990D02*
X123356267Y-132953371D01*
X123356267Y-132953371D02*
X123451505Y-132905752D01*
X123451505Y-132905752D02*
X123641981Y-132905752D01*
X123641981Y-132905752D02*
X123737219Y-132953371D01*
X124356267Y-133572419D02*
X124261029Y-133524800D01*
X124261029Y-133524800D02*
X124213410Y-133429561D01*
X124213410Y-133429561D02*
X124213410Y-132572419D01*
X124737220Y-133572419D02*
X124737220Y-132905752D01*
X124737220Y-132572419D02*
X124689601Y-132620038D01*
X124689601Y-132620038D02*
X124737220Y-132667657D01*
X124737220Y-132667657D02*
X124784839Y-132620038D01*
X124784839Y-132620038D02*
X124737220Y-132572419D01*
X124737220Y-132572419D02*
X124737220Y-132667657D01*
X125641981Y-133572419D02*
X125641981Y-132572419D01*
X125641981Y-133524800D02*
X125546743Y-133572419D01*
X125546743Y-133572419D02*
X125356267Y-133572419D01*
X125356267Y-133572419D02*
X125261029Y-133524800D01*
X125261029Y-133524800D02*
X125213410Y-133477180D01*
X125213410Y-133477180D02*
X125165791Y-133381942D01*
X125165791Y-133381942D02*
X125165791Y-133096228D01*
X125165791Y-133096228D02*
X125213410Y-133000990D01*
X125213410Y-133000990D02*
X125261029Y-132953371D01*
X125261029Y-132953371D02*
X125356267Y-132905752D01*
X125356267Y-132905752D02*
X125546743Y-132905752D01*
X125546743Y-132905752D02*
X125641981Y-132953371D01*
X126118172Y-133572419D02*
X126118172Y-132905752D01*
X126118172Y-132572419D02*
X126070553Y-132620038D01*
X126070553Y-132620038D02*
X126118172Y-132667657D01*
X126118172Y-132667657D02*
X126165791Y-132620038D01*
X126165791Y-132620038D02*
X126118172Y-132572419D01*
X126118172Y-132572419D02*
X126118172Y-132667657D01*
X126594362Y-132905752D02*
X126594362Y-133572419D01*
X126594362Y-133000990D02*
X126641981Y-132953371D01*
X126641981Y-132953371D02*
X126737219Y-132905752D01*
X126737219Y-132905752D02*
X126880076Y-132905752D01*
X126880076Y-132905752D02*
X126975314Y-132953371D01*
X126975314Y-132953371D02*
X127022933Y-133048609D01*
X127022933Y-133048609D02*
X127022933Y-133572419D01*
X127927695Y-132905752D02*
X127927695Y-133715276D01*
X127927695Y-133715276D02*
X127880076Y-133810514D01*
X127880076Y-133810514D02*
X127832457Y-133858133D01*
X127832457Y-133858133D02*
X127737219Y-133905752D01*
X127737219Y-133905752D02*
X127594362Y-133905752D01*
X127594362Y-133905752D02*
X127499124Y-133858133D01*
X127927695Y-133524800D02*
X127832457Y-133572419D01*
X127832457Y-133572419D02*
X127641981Y-133572419D01*
X127641981Y-133572419D02*
X127546743Y-133524800D01*
X127546743Y-133524800D02*
X127499124Y-133477180D01*
X127499124Y-133477180D02*
X127451505Y-133381942D01*
X127451505Y-133381942D02*
X127451505Y-133096228D01*
X127451505Y-133096228D02*
X127499124Y-133000990D01*
X127499124Y-133000990D02*
X127546743Y-132953371D01*
X127546743Y-132953371D02*
X127641981Y-132905752D01*
X127641981Y-132905752D02*
X127832457Y-132905752D01*
X127832457Y-132905752D02*
X127927695Y-132953371D01*
D11*
X133977428Y-88461009D02*
X134120285Y-88508628D01*
X134120285Y-88508628D02*
X134167904Y-88556247D01*
X134167904Y-88556247D02*
X134215523Y-88651485D01*
X134215523Y-88651485D02*
X134215523Y-88794342D01*
X134215523Y-88794342D02*
X134167904Y-88889580D01*
X134167904Y-88889580D02*
X134120285Y-88937200D01*
X134120285Y-88937200D02*
X134025047Y-88984819D01*
X134025047Y-88984819D02*
X133644095Y-88984819D01*
X133644095Y-88984819D02*
X133644095Y-87984819D01*
X133644095Y-87984819D02*
X133977428Y-87984819D01*
X133977428Y-87984819D02*
X134072666Y-88032438D01*
X134072666Y-88032438D02*
X134120285Y-88080057D01*
X134120285Y-88080057D02*
X134167904Y-88175295D01*
X134167904Y-88175295D02*
X134167904Y-88270533D01*
X134167904Y-88270533D02*
X134120285Y-88365771D01*
X134120285Y-88365771D02*
X134072666Y-88413390D01*
X134072666Y-88413390D02*
X133977428Y-88461009D01*
X133977428Y-88461009D02*
X133644095Y-88461009D01*
X134644095Y-88984819D02*
X134644095Y-87984819D01*
X134644095Y-87984819D02*
X134977428Y-88699104D01*
X134977428Y-88699104D02*
X135310761Y-87984819D01*
X135310761Y-87984819D02*
X135310761Y-88984819D01*
X135786952Y-88984819D02*
X135786952Y-87984819D01*
X135786952Y-87984819D02*
X136167904Y-87984819D01*
X136167904Y-87984819D02*
X136263142Y-88032438D01*
X136263142Y-88032438D02*
X136310761Y-88080057D01*
X136310761Y-88080057D02*
X136358380Y-88175295D01*
X136358380Y-88175295D02*
X136358380Y-88318152D01*
X136358380Y-88318152D02*
X136310761Y-88413390D01*
X136310761Y-88413390D02*
X136263142Y-88461009D01*
X136263142Y-88461009D02*
X136167904Y-88508628D01*
X136167904Y-88508628D02*
X135786952Y-88508628D01*
X137263142Y-87984819D02*
X136786952Y-87984819D01*
X136786952Y-87984819D02*
X136739333Y-88461009D01*
X136739333Y-88461009D02*
X136786952Y-88413390D01*
X136786952Y-88413390D02*
X136882190Y-88365771D01*
X136882190Y-88365771D02*
X137120285Y-88365771D01*
X137120285Y-88365771D02*
X137215523Y-88413390D01*
X137215523Y-88413390D02*
X137263142Y-88461009D01*
X137263142Y-88461009D02*
X137310761Y-88556247D01*
X137310761Y-88556247D02*
X137310761Y-88794342D01*
X137310761Y-88794342D02*
X137263142Y-88889580D01*
X137263142Y-88889580D02*
X137215523Y-88937200D01*
X137215523Y-88937200D02*
X137120285Y-88984819D01*
X137120285Y-88984819D02*
X136882190Y-88984819D01*
X136882190Y-88984819D02*
X136786952Y-88937200D01*
X136786952Y-88937200D02*
X136739333Y-88889580D01*
X137882190Y-88413390D02*
X137786952Y-88365771D01*
X137786952Y-88365771D02*
X137739333Y-88318152D01*
X137739333Y-88318152D02*
X137691714Y-88222914D01*
X137691714Y-88222914D02*
X137691714Y-88175295D01*
X137691714Y-88175295D02*
X137739333Y-88080057D01*
X137739333Y-88080057D02*
X137786952Y-88032438D01*
X137786952Y-88032438D02*
X137882190Y-87984819D01*
X137882190Y-87984819D02*
X138072666Y-87984819D01*
X138072666Y-87984819D02*
X138167904Y-88032438D01*
X138167904Y-88032438D02*
X138215523Y-88080057D01*
X138215523Y-88080057D02*
X138263142Y-88175295D01*
X138263142Y-88175295D02*
X138263142Y-88222914D01*
X138263142Y-88222914D02*
X138215523Y-88318152D01*
X138215523Y-88318152D02*
X138167904Y-88365771D01*
X138167904Y-88365771D02*
X138072666Y-88413390D01*
X138072666Y-88413390D02*
X137882190Y-88413390D01*
X137882190Y-88413390D02*
X137786952Y-88461009D01*
X137786952Y-88461009D02*
X137739333Y-88508628D01*
X137739333Y-88508628D02*
X137691714Y-88603866D01*
X137691714Y-88603866D02*
X137691714Y-88794342D01*
X137691714Y-88794342D02*
X137739333Y-88889580D01*
X137739333Y-88889580D02*
X137786952Y-88937200D01*
X137786952Y-88937200D02*
X137882190Y-88984819D01*
X137882190Y-88984819D02*
X138072666Y-88984819D01*
X138072666Y-88984819D02*
X138167904Y-88937200D01*
X138167904Y-88937200D02*
X138215523Y-88889580D01*
X138215523Y-88889580D02*
X138263142Y-88794342D01*
X138263142Y-88794342D02*
X138263142Y-88603866D01*
X138263142Y-88603866D02*
X138215523Y-88508628D01*
X138215523Y-88508628D02*
X138167904Y-88461009D01*
X138167904Y-88461009D02*
X138072666Y-88413390D01*
X138882190Y-87984819D02*
X138977428Y-87984819D01*
X138977428Y-87984819D02*
X139072666Y-88032438D01*
X139072666Y-88032438D02*
X139120285Y-88080057D01*
X139120285Y-88080057D02*
X139167904Y-88175295D01*
X139167904Y-88175295D02*
X139215523Y-88365771D01*
X139215523Y-88365771D02*
X139215523Y-88603866D01*
X139215523Y-88603866D02*
X139167904Y-88794342D01*
X139167904Y-88794342D02*
X139120285Y-88889580D01*
X139120285Y-88889580D02*
X139072666Y-88937200D01*
X139072666Y-88937200D02*
X138977428Y-88984819D01*
X138977428Y-88984819D02*
X138882190Y-88984819D01*
X138882190Y-88984819D02*
X138786952Y-88937200D01*
X138786952Y-88937200D02*
X138739333Y-88889580D01*
X138739333Y-88889580D02*
X138691714Y-88794342D01*
X138691714Y-88794342D02*
X138644095Y-88603866D01*
X138644095Y-88603866D02*
X138644095Y-88365771D01*
X138644095Y-88365771D02*
X138691714Y-88175295D01*
X138691714Y-88175295D02*
X138739333Y-88080057D01*
X138739333Y-88080057D02*
X138786952Y-88032438D01*
X138786952Y-88032438D02*
X138882190Y-87984819D01*
X138309523Y-74359580D02*
X138261904Y-74407200D01*
X138261904Y-74407200D02*
X138119047Y-74454819D01*
X138119047Y-74454819D02*
X138023809Y-74454819D01*
X138023809Y-74454819D02*
X137880952Y-74407200D01*
X137880952Y-74407200D02*
X137785714Y-74311961D01*
X137785714Y-74311961D02*
X137738095Y-74216723D01*
X137738095Y-74216723D02*
X137690476Y-74026247D01*
X137690476Y-74026247D02*
X137690476Y-73883390D01*
X137690476Y-73883390D02*
X137738095Y-73692914D01*
X137738095Y-73692914D02*
X137785714Y-73597676D01*
X137785714Y-73597676D02*
X137880952Y-73502438D01*
X137880952Y-73502438D02*
X138023809Y-73454819D01*
X138023809Y-73454819D02*
X138119047Y-73454819D01*
X138119047Y-73454819D02*
X138261904Y-73502438D01*
X138261904Y-73502438D02*
X138309523Y-73550057D01*
X138738095Y-74073866D02*
X139500000Y-74073866D01*
X140499999Y-74454819D02*
X139928571Y-74454819D01*
X140214285Y-74454819D02*
X140214285Y-73454819D01*
X140214285Y-73454819D02*
X140119047Y-73597676D01*
X140119047Y-73597676D02*
X140023809Y-73692914D01*
X140023809Y-73692914D02*
X139928571Y-73740533D01*
X141119047Y-73454819D02*
X141214285Y-73454819D01*
X141214285Y-73454819D02*
X141309523Y-73502438D01*
X141309523Y-73502438D02*
X141357142Y-73550057D01*
X141357142Y-73550057D02*
X141404761Y-73645295D01*
X141404761Y-73645295D02*
X141452380Y-73835771D01*
X141452380Y-73835771D02*
X141452380Y-74073866D01*
X141452380Y-74073866D02*
X141404761Y-74264342D01*
X141404761Y-74264342D02*
X141357142Y-74359580D01*
X141357142Y-74359580D02*
X141309523Y-74407200D01*
X141309523Y-74407200D02*
X141214285Y-74454819D01*
X141214285Y-74454819D02*
X141119047Y-74454819D01*
X141119047Y-74454819D02*
X141023809Y-74407200D01*
X141023809Y-74407200D02*
X140976190Y-74359580D01*
X140976190Y-74359580D02*
X140928571Y-74264342D01*
X140928571Y-74264342D02*
X140880952Y-74073866D01*
X140880952Y-74073866D02*
X140880952Y-73835771D01*
X140880952Y-73835771D02*
X140928571Y-73645295D01*
X140928571Y-73645295D02*
X140976190Y-73550057D01*
X140976190Y-73550057D02*
X141023809Y-73502438D01*
X141023809Y-73502438D02*
X141119047Y-73454819D01*
X142071428Y-73454819D02*
X142166666Y-73454819D01*
X142166666Y-73454819D02*
X142261904Y-73502438D01*
X142261904Y-73502438D02*
X142309523Y-73550057D01*
X142309523Y-73550057D02*
X142357142Y-73645295D01*
X142357142Y-73645295D02*
X142404761Y-73835771D01*
X142404761Y-73835771D02*
X142404761Y-74073866D01*
X142404761Y-74073866D02*
X142357142Y-74264342D01*
X142357142Y-74264342D02*
X142309523Y-74359580D01*
X142309523Y-74359580D02*
X142261904Y-74407200D01*
X142261904Y-74407200D02*
X142166666Y-74454819D01*
X142166666Y-74454819D02*
X142071428Y-74454819D01*
X142071428Y-74454819D02*
X141976190Y-74407200D01*
X141976190Y-74407200D02*
X141928571Y-74359580D01*
X141928571Y-74359580D02*
X141880952Y-74264342D01*
X141880952Y-74264342D02*
X141833333Y-74073866D01*
X141833333Y-74073866D02*
X141833333Y-73835771D01*
X141833333Y-73835771D02*
X141880952Y-73645295D01*
X141880952Y-73645295D02*
X141928571Y-73550057D01*
X141928571Y-73550057D02*
X141976190Y-73502438D01*
X141976190Y-73502438D02*
X142071428Y-73454819D01*
X142833333Y-73788152D02*
X142833333Y-74454819D01*
X142833333Y-73883390D02*
X142880952Y-73835771D01*
X142880952Y-73835771D02*
X142976190Y-73788152D01*
X142976190Y-73788152D02*
X143119047Y-73788152D01*
X143119047Y-73788152D02*
X143214285Y-73835771D01*
X143214285Y-73835771D02*
X143261904Y-73931009D01*
X143261904Y-73931009D02*
X143261904Y-74454819D01*
D10*
X132433333Y-128357419D02*
X132433333Y-127357419D01*
X132433333Y-127833609D02*
X133004761Y-127833609D01*
X133004761Y-128357419D02*
X133004761Y-127357419D01*
X133338095Y-127357419D02*
X133909523Y-127357419D01*
X133623809Y-128357419D02*
X133623809Y-127357419D01*
X134242857Y-127976466D02*
X135004762Y-127976466D01*
X136052380Y-128357419D02*
X135719047Y-127881228D01*
X135480952Y-128357419D02*
X135480952Y-127357419D01*
X135480952Y-127357419D02*
X135861904Y-127357419D01*
X135861904Y-127357419D02*
X135957142Y-127405038D01*
X135957142Y-127405038D02*
X136004761Y-127452657D01*
X136004761Y-127452657D02*
X136052380Y-127547895D01*
X136052380Y-127547895D02*
X136052380Y-127690752D01*
X136052380Y-127690752D02*
X136004761Y-127785990D01*
X136004761Y-127785990D02*
X135957142Y-127833609D01*
X135957142Y-127833609D02*
X135861904Y-127881228D01*
X135861904Y-127881228D02*
X135480952Y-127881228D01*
X136433333Y-128071704D02*
X136909523Y-128071704D01*
X136338095Y-128357419D02*
X136671428Y-127357419D01*
X136671428Y-127357419D02*
X137004761Y-128357419D01*
X137766666Y-127357419D02*
X137576190Y-127357419D01*
X137576190Y-127357419D02*
X137480952Y-127405038D01*
X137480952Y-127405038D02*
X137433333Y-127452657D01*
X137433333Y-127452657D02*
X137338095Y-127595514D01*
X137338095Y-127595514D02*
X137290476Y-127785990D01*
X137290476Y-127785990D02*
X137290476Y-128166942D01*
X137290476Y-128166942D02*
X137338095Y-128262180D01*
X137338095Y-128262180D02*
X137385714Y-128309800D01*
X137385714Y-128309800D02*
X137480952Y-128357419D01*
X137480952Y-128357419D02*
X137671428Y-128357419D01*
X137671428Y-128357419D02*
X137766666Y-128309800D01*
X137766666Y-128309800D02*
X137814285Y-128262180D01*
X137814285Y-128262180D02*
X137861904Y-128166942D01*
X137861904Y-128166942D02*
X137861904Y-127928847D01*
X137861904Y-127928847D02*
X137814285Y-127833609D01*
X137814285Y-127833609D02*
X137766666Y-127785990D01*
X137766666Y-127785990D02*
X137671428Y-127738371D01*
X137671428Y-127738371D02*
X137480952Y-127738371D01*
X137480952Y-127738371D02*
X137385714Y-127785990D01*
X137385714Y-127785990D02*
X137338095Y-127833609D01*
X137338095Y-127833609D02*
X137290476Y-127928847D01*
X138242857Y-127452657D02*
X138290476Y-127405038D01*
X138290476Y-127405038D02*
X138385714Y-127357419D01*
X138385714Y-127357419D02*
X138623809Y-127357419D01*
X138623809Y-127357419D02*
X138719047Y-127405038D01*
X138719047Y-127405038D02*
X138766666Y-127452657D01*
X138766666Y-127452657D02*
X138814285Y-127547895D01*
X138814285Y-127547895D02*
X138814285Y-127643133D01*
X138814285Y-127643133D02*
X138766666Y-127785990D01*
X138766666Y-127785990D02*
X138195238Y-128357419D01*
X138195238Y-128357419D02*
X138814285Y-128357419D01*
D11*
X129847618Y-99359580D02*
X129799999Y-99407200D01*
X129799999Y-99407200D02*
X129657142Y-99454819D01*
X129657142Y-99454819D02*
X129561904Y-99454819D01*
X129561904Y-99454819D02*
X129419047Y-99407200D01*
X129419047Y-99407200D02*
X129323809Y-99311961D01*
X129323809Y-99311961D02*
X129276190Y-99216723D01*
X129276190Y-99216723D02*
X129228571Y-99026247D01*
X129228571Y-99026247D02*
X129228571Y-98883390D01*
X129228571Y-98883390D02*
X129276190Y-98692914D01*
X129276190Y-98692914D02*
X129323809Y-98597676D01*
X129323809Y-98597676D02*
X129419047Y-98502438D01*
X129419047Y-98502438D02*
X129561904Y-98454819D01*
X129561904Y-98454819D02*
X129657142Y-98454819D01*
X129657142Y-98454819D02*
X129799999Y-98502438D01*
X129799999Y-98502438D02*
X129847618Y-98550057D01*
X130799999Y-99454819D02*
X130228571Y-99454819D01*
X130514285Y-99454819D02*
X130514285Y-98454819D01*
X130514285Y-98454819D02*
X130419047Y-98597676D01*
X130419047Y-98597676D02*
X130323809Y-98692914D01*
X130323809Y-98692914D02*
X130228571Y-98740533D01*
X132514285Y-99454819D02*
X131942857Y-99454819D01*
X132228571Y-99454819D02*
X132228571Y-98454819D01*
X132228571Y-98454819D02*
X132133333Y-98597676D01*
X132133333Y-98597676D02*
X132038095Y-98692914D01*
X132038095Y-98692914D02*
X131942857Y-98740533D01*
X133133333Y-98454819D02*
X133228571Y-98454819D01*
X133228571Y-98454819D02*
X133323809Y-98502438D01*
X133323809Y-98502438D02*
X133371428Y-98550057D01*
X133371428Y-98550057D02*
X133419047Y-98645295D01*
X133419047Y-98645295D02*
X133466666Y-98835771D01*
X133466666Y-98835771D02*
X133466666Y-99073866D01*
X133466666Y-99073866D02*
X133419047Y-99264342D01*
X133419047Y-99264342D02*
X133371428Y-99359580D01*
X133371428Y-99359580D02*
X133323809Y-99407200D01*
X133323809Y-99407200D02*
X133228571Y-99454819D01*
X133228571Y-99454819D02*
X133133333Y-99454819D01*
X133133333Y-99454819D02*
X133038095Y-99407200D01*
X133038095Y-99407200D02*
X132990476Y-99359580D01*
X132990476Y-99359580D02*
X132942857Y-99264342D01*
X132942857Y-99264342D02*
X132895238Y-99073866D01*
X132895238Y-99073866D02*
X132895238Y-98835771D01*
X132895238Y-98835771D02*
X132942857Y-98645295D01*
X132942857Y-98645295D02*
X132990476Y-98550057D01*
X132990476Y-98550057D02*
X133038095Y-98502438D01*
X133038095Y-98502438D02*
X133133333Y-98454819D01*
X134323809Y-98788152D02*
X134323809Y-99454819D01*
X133895238Y-98788152D02*
X133895238Y-99311961D01*
X133895238Y-99311961D02*
X133942857Y-99407200D01*
X133942857Y-99407200D02*
X134038095Y-99454819D01*
X134038095Y-99454819D02*
X134180952Y-99454819D01*
X134180952Y-99454819D02*
X134276190Y-99407200D01*
X134276190Y-99407200D02*
X134323809Y-99359580D01*
X147954819Y-132919047D02*
X147954819Y-133490475D01*
X147954819Y-133204761D02*
X146954819Y-133204761D01*
X146954819Y-133204761D02*
X147097676Y-133299999D01*
X147097676Y-133299999D02*
X147192914Y-133395237D01*
X147192914Y-133395237D02*
X147240533Y-133490475D01*
X146954819Y-132299999D02*
X146954819Y-132204761D01*
X146954819Y-132204761D02*
X147002438Y-132109523D01*
X147002438Y-132109523D02*
X147050057Y-132061904D01*
X147050057Y-132061904D02*
X147145295Y-132014285D01*
X147145295Y-132014285D02*
X147335771Y-131966666D01*
X147335771Y-131966666D02*
X147573866Y-131966666D01*
X147573866Y-131966666D02*
X147764342Y-132014285D01*
X147764342Y-132014285D02*
X147859580Y-132061904D01*
X147859580Y-132061904D02*
X147907200Y-132109523D01*
X147907200Y-132109523D02*
X147954819Y-132204761D01*
X147954819Y-132204761D02*
X147954819Y-132299999D01*
X147954819Y-132299999D02*
X147907200Y-132395237D01*
X147907200Y-132395237D02*
X147859580Y-132442856D01*
X147859580Y-132442856D02*
X147764342Y-132490475D01*
X147764342Y-132490475D02*
X147573866Y-132538094D01*
X147573866Y-132538094D02*
X147335771Y-132538094D01*
X147335771Y-132538094D02*
X147145295Y-132490475D01*
X147145295Y-132490475D02*
X147050057Y-132442856D01*
X147050057Y-132442856D02*
X147002438Y-132395237D01*
X147002438Y-132395237D02*
X146954819Y-132299999D01*
X146954819Y-131347618D02*
X146954819Y-131252380D01*
X146954819Y-131252380D02*
X147002438Y-131157142D01*
X147002438Y-131157142D02*
X147050057Y-131109523D01*
X147050057Y-131109523D02*
X147145295Y-131061904D01*
X147145295Y-131061904D02*
X147335771Y-131014285D01*
X147335771Y-131014285D02*
X147573866Y-131014285D01*
X147573866Y-131014285D02*
X147764342Y-131061904D01*
X147764342Y-131061904D02*
X147859580Y-131109523D01*
X147859580Y-131109523D02*
X147907200Y-131157142D01*
X147907200Y-131157142D02*
X147954819Y-131252380D01*
X147954819Y-131252380D02*
X147954819Y-131347618D01*
X147954819Y-131347618D02*
X147907200Y-131442856D01*
X147907200Y-131442856D02*
X147859580Y-131490475D01*
X147859580Y-131490475D02*
X147764342Y-131538094D01*
X147764342Y-131538094D02*
X147573866Y-131585713D01*
X147573866Y-131585713D02*
X147335771Y-131585713D01*
X147335771Y-131585713D02*
X147145295Y-131538094D01*
X147145295Y-131538094D02*
X147050057Y-131490475D01*
X147050057Y-131490475D02*
X147002438Y-131442856D01*
X147002438Y-131442856D02*
X146954819Y-131347618D01*
X147288152Y-130585713D02*
X147954819Y-130585713D01*
X147383390Y-130585713D02*
X147335771Y-130538094D01*
X147335771Y-130538094D02*
X147288152Y-130442856D01*
X147288152Y-130442856D02*
X147288152Y-130299999D01*
X147288152Y-130299999D02*
X147335771Y-130204761D01*
X147335771Y-130204761D02*
X147431009Y-130157142D01*
X147431009Y-130157142D02*
X147954819Y-130157142D01*
X147654819Y-116795238D02*
X147654819Y-117366666D01*
X147654819Y-117080952D02*
X146654819Y-117080952D01*
X146654819Y-117080952D02*
X146797676Y-117176190D01*
X146797676Y-117176190D02*
X146892914Y-117271428D01*
X146892914Y-117271428D02*
X146940533Y-117366666D01*
X146654819Y-116176190D02*
X146654819Y-116080952D01*
X146654819Y-116080952D02*
X146702438Y-115985714D01*
X146702438Y-115985714D02*
X146750057Y-115938095D01*
X146750057Y-115938095D02*
X146845295Y-115890476D01*
X146845295Y-115890476D02*
X147035771Y-115842857D01*
X147035771Y-115842857D02*
X147273866Y-115842857D01*
X147273866Y-115842857D02*
X147464342Y-115890476D01*
X147464342Y-115890476D02*
X147559580Y-115938095D01*
X147559580Y-115938095D02*
X147607200Y-115985714D01*
X147607200Y-115985714D02*
X147654819Y-116080952D01*
X147654819Y-116080952D02*
X147654819Y-116176190D01*
X147654819Y-116176190D02*
X147607200Y-116271428D01*
X147607200Y-116271428D02*
X147559580Y-116319047D01*
X147559580Y-116319047D02*
X147464342Y-116366666D01*
X147464342Y-116366666D02*
X147273866Y-116414285D01*
X147273866Y-116414285D02*
X147035771Y-116414285D01*
X147035771Y-116414285D02*
X146845295Y-116366666D01*
X146845295Y-116366666D02*
X146750057Y-116319047D01*
X146750057Y-116319047D02*
X146702438Y-116271428D01*
X146702438Y-116271428D02*
X146654819Y-116176190D01*
X147654819Y-115414285D02*
X146654819Y-115414285D01*
X147273866Y-115319047D02*
X147654819Y-115033333D01*
X146988152Y-115033333D02*
X147369104Y-115414285D01*
X134685714Y-113259580D02*
X134638095Y-113307200D01*
X134638095Y-113307200D02*
X134495238Y-113354819D01*
X134495238Y-113354819D02*
X134400000Y-113354819D01*
X134400000Y-113354819D02*
X134257143Y-113307200D01*
X134257143Y-113307200D02*
X134161905Y-113211961D01*
X134161905Y-113211961D02*
X134114286Y-113116723D01*
X134114286Y-113116723D02*
X134066667Y-112926247D01*
X134066667Y-112926247D02*
X134066667Y-112783390D01*
X134066667Y-112783390D02*
X134114286Y-112592914D01*
X134114286Y-112592914D02*
X134161905Y-112497676D01*
X134161905Y-112497676D02*
X134257143Y-112402438D01*
X134257143Y-112402438D02*
X134400000Y-112354819D01*
X134400000Y-112354819D02*
X134495238Y-112354819D01*
X134495238Y-112354819D02*
X134638095Y-112402438D01*
X134638095Y-112402438D02*
X134685714Y-112450057D01*
X135114286Y-112973866D02*
X135876191Y-112973866D01*
X136876190Y-113354819D02*
X136304762Y-113354819D01*
X136590476Y-113354819D02*
X136590476Y-112354819D01*
X136590476Y-112354819D02*
X136495238Y-112497676D01*
X136495238Y-112497676D02*
X136400000Y-112592914D01*
X136400000Y-112592914D02*
X136304762Y-112640533D01*
X137495238Y-112354819D02*
X137590476Y-112354819D01*
X137590476Y-112354819D02*
X137685714Y-112402438D01*
X137685714Y-112402438D02*
X137733333Y-112450057D01*
X137733333Y-112450057D02*
X137780952Y-112545295D01*
X137780952Y-112545295D02*
X137828571Y-112735771D01*
X137828571Y-112735771D02*
X137828571Y-112973866D01*
X137828571Y-112973866D02*
X137780952Y-113164342D01*
X137780952Y-113164342D02*
X137733333Y-113259580D01*
X137733333Y-113259580D02*
X137685714Y-113307200D01*
X137685714Y-113307200D02*
X137590476Y-113354819D01*
X137590476Y-113354819D02*
X137495238Y-113354819D01*
X137495238Y-113354819D02*
X137400000Y-113307200D01*
X137400000Y-113307200D02*
X137352381Y-113259580D01*
X137352381Y-113259580D02*
X137304762Y-113164342D01*
X137304762Y-113164342D02*
X137257143Y-112973866D01*
X137257143Y-112973866D02*
X137257143Y-112735771D01*
X137257143Y-112735771D02*
X137304762Y-112545295D01*
X137304762Y-112545295D02*
X137352381Y-112450057D01*
X137352381Y-112450057D02*
X137400000Y-112402438D01*
X137400000Y-112402438D02*
X137495238Y-112354819D01*
X138685714Y-112688152D02*
X138685714Y-113354819D01*
X138257143Y-112688152D02*
X138257143Y-113211961D01*
X138257143Y-113211961D02*
X138304762Y-113307200D01*
X138304762Y-113307200D02*
X138400000Y-113354819D01*
X138400000Y-113354819D02*
X138542857Y-113354819D01*
X138542857Y-113354819D02*
X138638095Y-113307200D01*
X138638095Y-113307200D02*
X138685714Y-113259580D01*
X121299999Y-70854819D02*
X120823809Y-70854819D01*
X120823809Y-70854819D02*
X120823809Y-69854819D01*
X122204761Y-70759580D02*
X122157142Y-70807200D01*
X122157142Y-70807200D02*
X122014285Y-70854819D01*
X122014285Y-70854819D02*
X121919047Y-70854819D01*
X121919047Y-70854819D02*
X121776190Y-70807200D01*
X121776190Y-70807200D02*
X121680952Y-70711961D01*
X121680952Y-70711961D02*
X121633333Y-70616723D01*
X121633333Y-70616723D02*
X121585714Y-70426247D01*
X121585714Y-70426247D02*
X121585714Y-70283390D01*
X121585714Y-70283390D02*
X121633333Y-70092914D01*
X121633333Y-70092914D02*
X121680952Y-69997676D01*
X121680952Y-69997676D02*
X121776190Y-69902438D01*
X121776190Y-69902438D02*
X121919047Y-69854819D01*
X121919047Y-69854819D02*
X122014285Y-69854819D01*
X122014285Y-69854819D02*
X122157142Y-69902438D01*
X122157142Y-69902438D02*
X122204761Y-69950057D01*
X122538095Y-69854819D02*
X123204761Y-69854819D01*
X123204761Y-69854819D02*
X122776190Y-70854819D01*
X124014285Y-69854819D02*
X123823809Y-69854819D01*
X123823809Y-69854819D02*
X123728571Y-69902438D01*
X123728571Y-69902438D02*
X123680952Y-69950057D01*
X123680952Y-69950057D02*
X123585714Y-70092914D01*
X123585714Y-70092914D02*
X123538095Y-70283390D01*
X123538095Y-70283390D02*
X123538095Y-70664342D01*
X123538095Y-70664342D02*
X123585714Y-70759580D01*
X123585714Y-70759580D02*
X123633333Y-70807200D01*
X123633333Y-70807200D02*
X123728571Y-70854819D01*
X123728571Y-70854819D02*
X123919047Y-70854819D01*
X123919047Y-70854819D02*
X124014285Y-70807200D01*
X124014285Y-70807200D02*
X124061904Y-70759580D01*
X124061904Y-70759580D02*
X124109523Y-70664342D01*
X124109523Y-70664342D02*
X124109523Y-70426247D01*
X124109523Y-70426247D02*
X124061904Y-70331009D01*
X124061904Y-70331009D02*
X124014285Y-70283390D01*
X124014285Y-70283390D02*
X123919047Y-70235771D01*
X123919047Y-70235771D02*
X123728571Y-70235771D01*
X123728571Y-70235771D02*
X123633333Y-70283390D01*
X123633333Y-70283390D02*
X123585714Y-70331009D01*
X123585714Y-70331009D02*
X123538095Y-70426247D01*
X125061904Y-69902438D02*
X124966666Y-69854819D01*
X124966666Y-69854819D02*
X124823809Y-69854819D01*
X124823809Y-69854819D02*
X124680952Y-69902438D01*
X124680952Y-69902438D02*
X124585714Y-69997676D01*
X124585714Y-69997676D02*
X124538095Y-70092914D01*
X124538095Y-70092914D02*
X124490476Y-70283390D01*
X124490476Y-70283390D02*
X124490476Y-70426247D01*
X124490476Y-70426247D02*
X124538095Y-70616723D01*
X124538095Y-70616723D02*
X124585714Y-70711961D01*
X124585714Y-70711961D02*
X124680952Y-70807200D01*
X124680952Y-70807200D02*
X124823809Y-70854819D01*
X124823809Y-70854819D02*
X124919047Y-70854819D01*
X124919047Y-70854819D02*
X125061904Y-70807200D01*
X125061904Y-70807200D02*
X125109523Y-70759580D01*
X125109523Y-70759580D02*
X125109523Y-70426247D01*
X125109523Y-70426247D02*
X124919047Y-70426247D01*
X126823809Y-69902438D02*
X126728571Y-69854819D01*
X126728571Y-69854819D02*
X126585714Y-69854819D01*
X126585714Y-69854819D02*
X126442857Y-69902438D01*
X126442857Y-69902438D02*
X126347619Y-69997676D01*
X126347619Y-69997676D02*
X126300000Y-70092914D01*
X126300000Y-70092914D02*
X126252381Y-70283390D01*
X126252381Y-70283390D02*
X126252381Y-70426247D01*
X126252381Y-70426247D02*
X126300000Y-70616723D01*
X126300000Y-70616723D02*
X126347619Y-70711961D01*
X126347619Y-70711961D02*
X126442857Y-70807200D01*
X126442857Y-70807200D02*
X126585714Y-70854819D01*
X126585714Y-70854819D02*
X126680952Y-70854819D01*
X126680952Y-70854819D02*
X126823809Y-70807200D01*
X126823809Y-70807200D02*
X126871428Y-70759580D01*
X126871428Y-70759580D02*
X126871428Y-70426247D01*
X126871428Y-70426247D02*
X126680952Y-70426247D01*
X127300000Y-70854819D02*
X127300000Y-69854819D01*
X127300000Y-69854819D02*
X127680952Y-69854819D01*
X127680952Y-69854819D02*
X127776190Y-69902438D01*
X127776190Y-69902438D02*
X127823809Y-69950057D01*
X127823809Y-69950057D02*
X127871428Y-70045295D01*
X127871428Y-70045295D02*
X127871428Y-70188152D01*
X127871428Y-70188152D02*
X127823809Y-70283390D01*
X127823809Y-70283390D02*
X127776190Y-70331009D01*
X127776190Y-70331009D02*
X127680952Y-70378628D01*
X127680952Y-70378628D02*
X127300000Y-70378628D01*
X128252381Y-70807200D02*
X128395238Y-70854819D01*
X128395238Y-70854819D02*
X128633333Y-70854819D01*
X128633333Y-70854819D02*
X128728571Y-70807200D01*
X128728571Y-70807200D02*
X128776190Y-70759580D01*
X128776190Y-70759580D02*
X128823809Y-70664342D01*
X128823809Y-70664342D02*
X128823809Y-70569104D01*
X128823809Y-70569104D02*
X128776190Y-70473866D01*
X128776190Y-70473866D02*
X128728571Y-70426247D01*
X128728571Y-70426247D02*
X128633333Y-70378628D01*
X128633333Y-70378628D02*
X128442857Y-70331009D01*
X128442857Y-70331009D02*
X128347619Y-70283390D01*
X128347619Y-70283390D02*
X128300000Y-70235771D01*
X128300000Y-70235771D02*
X128252381Y-70140533D01*
X128252381Y-70140533D02*
X128252381Y-70045295D01*
X128252381Y-70045295D02*
X128300000Y-69950057D01*
X128300000Y-69950057D02*
X128347619Y-69902438D01*
X128347619Y-69902438D02*
X128442857Y-69854819D01*
X128442857Y-69854819D02*
X128680952Y-69854819D01*
X128680952Y-69854819D02*
X128823809Y-69902438D01*
X114738095Y-122454819D02*
X114738095Y-123264342D01*
X114738095Y-123264342D02*
X114785714Y-123359580D01*
X114785714Y-123359580D02*
X114833333Y-123407200D01*
X114833333Y-123407200D02*
X114928571Y-123454819D01*
X114928571Y-123454819D02*
X115119047Y-123454819D01*
X115119047Y-123454819D02*
X115214285Y-123407200D01*
X115214285Y-123407200D02*
X115261904Y-123359580D01*
X115261904Y-123359580D02*
X115309523Y-123264342D01*
X115309523Y-123264342D02*
X115309523Y-122454819D01*
X115738095Y-122550057D02*
X115785714Y-122502438D01*
X115785714Y-122502438D02*
X115880952Y-122454819D01*
X115880952Y-122454819D02*
X116119047Y-122454819D01*
X116119047Y-122454819D02*
X116214285Y-122502438D01*
X116214285Y-122502438D02*
X116261904Y-122550057D01*
X116261904Y-122550057D02*
X116309523Y-122645295D01*
X116309523Y-122645295D02*
X116309523Y-122740533D01*
X116309523Y-122740533D02*
X116261904Y-122883390D01*
X116261904Y-122883390D02*
X115690476Y-123454819D01*
X115690476Y-123454819D02*
X116309523Y-123454819D01*
%TO.C,BMP580*%
D10*
X125756000Y-82330000D02*
X147056000Y-82330000D01*
X147056000Y-94730000D01*
X125756000Y-94730000D01*
X125756000Y-82330000D01*
%TO.C,C-100n*%
D12*
X135411252Y-73165000D02*
X134888748Y-73165000D01*
X135411252Y-74635000D02*
X134888748Y-74635000D01*
%TO.C,HT-RA62*%
D10*
X128675000Y-116487500D02*
X141900000Y-116487500D01*
X141900000Y-130712500D01*
X128675000Y-130712500D01*
X128675000Y-116487500D01*
%TO.C,C1 10u*%
D12*
X127211252Y-97265000D02*
X126688748Y-97265000D01*
X127211252Y-98735000D02*
X126688748Y-98735000D01*
%TO.C,100n*%
X146665000Y-128023752D02*
X146665000Y-127501248D01*
X148135000Y-128023752D02*
X148135000Y-127501248D01*
%TO.C,10k*%
X147327064Y-121065000D02*
X146872936Y-121065000D01*
X147327064Y-122535000D02*
X146872936Y-122535000D01*
%TO.C,C-10u*%
X132261252Y-112365000D02*
X131738748Y-112365000D01*
X132261252Y-113835000D02*
X131738748Y-113835000D01*
%TO.C,LC76G GPS*%
D10*
X130100000Y-69700000D02*
X136700000Y-69700000D01*
X136700000Y-71300000D01*
X130100000Y-71300000D01*
X130100000Y-69700000D01*
%TO.C,U2*%
X111836000Y-99092000D02*
X119236000Y-99092000D01*
X119236000Y-120492000D01*
X111836000Y-120492000D01*
X111836000Y-99092000D01*
%TD*%
M02*
