%TF.GenerationSoftware,KiCad,Pcbnew,10.0.4*%
%TF.CreationDate,2026-08-10T16:15:37+12:00*%
%TF.ProjectId,ESP32 vario,45535033-3220-4766-9172-696f2e6b6963,rev?*%
%TF.SameCoordinates,Original*%
%TF.FileFunction,Copper,L2,Bot*%
%TF.FilePolarity,Positive*%
%FSLAX46Y46*%
G04 Gerber Fmt 4.6, Leading zero omitted, Abs format (unit mm)*
G04 Created by KiCad (PCBNEW 10.0.4) date 2026-08-10 16:15:37*
%MOMM*%
%LPD*%
G01*
G04 APERTURE LIST*
%TA.AperFunction,ComponentPad*%
%ADD10R,1.700000X1.700000*%
%TD*%
%TA.AperFunction,ComponentPad*%
%ADD11C,1.700000*%
%TD*%
%TA.AperFunction,ComponentPad*%
%ADD12R,1.000000X1.000000*%
%TD*%
%TA.AperFunction,ComponentPad*%
%ADD13C,1.000000*%
%TD*%
%TA.AperFunction,ViaPad*%
%ADD14C,0.600000*%
%TD*%
%TA.AperFunction,Conductor*%
%ADD15C,0.300000*%
%TD*%
G04 APERTURE END LIST*
D10*
%TO.P,BMP580,1,Vin_1*%
%TO.N,+3V*%
X127356000Y-93230000D03*
D11*
%TO.P,BMP580,2,3Vo_2*%
%TO.N,unconnected-(U3-3Vo-Pad2)*%
X129896000Y-93230000D03*
%TO.P,BMP580,3,GND_3*%
%TO.N,GND*%
X132436000Y-93230000D03*
%TO.P,BMP580,4,SCL_4*%
%TO.N,SCL*%
X134976000Y-93230000D03*
%TO.P,BMP580,5,SDO_5*%
%TO.N,unconnected-(U3-SDO-Pad5)*%
X137516000Y-93230000D03*
%TO.P,BMP580,6,SDA_6*%
%TO.N,SDA*%
X140056000Y-93230000D03*
%TO.P,BMP580,7,CS_7*%
%TO.N,unconnected-(U3-CS-Pad7)*%
X142596000Y-93230000D03*
%TO.P,BMP580,8,INT_8*%
%TO.N,unconnected-(U3-INT-Pad8)*%
X145136000Y-93230000D03*
%TD*%
D12*
%TO.P,LC76G GPS,1,Vcc_1*%
%TO.N,+3V*%
X136000000Y-70500000D03*
D13*
%TO.P,LC76G GPS,2,GND_2*%
%TO.N,GND*%
X134333333Y-70500000D03*
%TO.P,LC76G GPS,3,tX_3*%
%TO.N,Rx*%
X132666667Y-70500000D03*
%TO.P,LC76G GPS,4,Rx_4*%
%TO.N,Tx*%
X131000000Y-70500000D03*
%TD*%
D10*
%TO.P,U2,1,3V_1*%
%TO.N,+3V*%
X113936000Y-100992000D03*
D11*
%TO.P,U2,2,GND_2*%
%TO.N,GND*%
X113936000Y-103532000D03*
%TO.P,U2,3,GP0_3*%
%TO.N,MISO*%
X113936000Y-106072000D03*
%TO.P,U2,4,GP1_4*%
%TO.N,SCK*%
X113936000Y-108612000D03*
%TO.P,U2,5,GP2_5*%
%TO.N,BUSY*%
X113936000Y-111152000D03*
%TO.P,U2,6,GP3_6*%
%TO.N,MOSI*%
X113936000Y-113692000D03*
%TO.P,U2,7,GP17_7*%
%TO.N,NSS(CS)*%
X113936000Y-116232000D03*
%TO.P,U2,8,GP18_8*%
%TO.N,unconnected-(U2-GP18-Pad8)*%
X113936000Y-118772000D03*
D10*
%TO.P,U2,9,VBUS_9*%
%TO.N,unconnected-(U2-VBUS-Pad9)*%
X117500000Y-101000000D03*
D11*
%TO.P,U2,10,GND_10*%
%TO.N,GND*%
X117500000Y-103540000D03*
%TO.P,U2,11,GP19_11*%
%TO.N,unconnected-(U2-GP19-Pad11)*%
X117500000Y-106080000D03*
%TO.P,U2,12,GP20_12*%
%TO.N,unconnected-(U2-GP20-Pad12)*%
X117500000Y-108620000D03*
%TO.P,U2,13,Tx43_13*%
%TO.N,Tx*%
X117500000Y-111160000D03*
%TO.P,U2,14,Rx44_14*%
%TO.N,Rx*%
X117500000Y-113700000D03*
%TO.P,U2,15,SDA_15*%
%TO.N,SDA*%
X117500000Y-116240000D03*
%TO.P,U2,16,SCL_16*%
%TO.N,SCL*%
X117500000Y-118780000D03*
%TD*%
D14*
%TO.N,GND*%
X120500000Y-102500000D03*
X131000000Y-118000000D03*
X140500000Y-129000000D03*
X130500000Y-98000000D03*
X130400000Y-131000000D03*
X134200000Y-75700000D03*
%TD*%
%TO.N,SCL*%
D15*
X130900000Y-106600000D02*
X123000000Y-114500000D01*
X135000000Y-91500000D02*
X143400000Y-91500000D01*
X123000000Y-114500000D02*
X123000000Y-118500000D01*
X143400000Y-91500000D02*
X143900000Y-92000000D01*
X123000000Y-118500000D02*
X122720000Y-118780000D01*
X122720000Y-118780000D02*
X117500000Y-118780000D01*
X143900000Y-102600000D02*
X139900000Y-106600000D01*
X134976000Y-93230000D02*
X134976000Y-91524000D01*
X134976000Y-91524000D02*
X135000000Y-91500000D01*
X143900000Y-92000000D02*
X143900000Y-102600000D01*
X139900000Y-106600000D02*
X130900000Y-106600000D01*
%TO.N,SDA*%
X139000000Y-104000000D02*
X140056000Y-102944000D01*
X140056000Y-102944000D02*
X140056000Y-93230000D01*
X129740000Y-104000000D02*
X139000000Y-104000000D01*
X117500000Y-116240000D02*
X129740000Y-104000000D01*
%TO.N,Rx*%
X129500000Y-83500000D02*
X129500000Y-75500000D01*
X123000000Y-108200000D02*
X123000000Y-98000000D01*
X123000000Y-90000000D02*
X129500000Y-83500000D01*
X117500000Y-113700000D02*
X123000000Y-108200000D01*
X129500000Y-75500000D02*
X132666667Y-72333333D01*
X132666667Y-72333333D02*
X132666667Y-70500000D01*
X123000000Y-98000000D02*
X123000000Y-90000000D01*
%TO.N,Tx*%
X115500000Y-97500000D02*
X117600000Y-97500000D01*
X127000000Y-82500000D02*
X127000000Y-74500000D01*
X117600000Y-97500000D02*
X120500000Y-94600000D01*
X117500000Y-111160000D02*
X115660000Y-111160000D01*
X115500000Y-111000000D02*
X115500000Y-97500000D01*
X127000000Y-74500000D02*
X131000000Y-70500000D01*
X120500000Y-94600000D02*
X120500000Y-89000000D01*
X120500000Y-89000000D02*
X127000000Y-82500000D01*
X115660000Y-111160000D02*
X115500000Y-111000000D01*
%TD*%
%TA.AperFunction,Conductor*%
%TO.N,GND*%
G36*
X149442539Y-68020185D02*
G01*
X149488294Y-68072989D01*
X149499500Y-68124500D01*
X149499500Y-134275179D01*
X149479815Y-134342218D01*
X149427011Y-134387973D01*
X149375187Y-134399179D01*
X110624187Y-134301323D01*
X110557197Y-134281469D01*
X110511576Y-134228549D01*
X110500500Y-134177323D01*
X110500500Y-96624500D01*
X110520185Y-96557461D01*
X110572989Y-96511706D01*
X110624500Y-96500500D01*
X117380192Y-96500500D01*
X117401437Y-96506738D01*
X117423526Y-96508318D01*
X117434309Y-96516390D01*
X117447231Y-96520185D01*
X117461730Y-96536918D01*
X117479459Y-96550190D01*
X117484166Y-96562810D01*
X117492986Y-96572989D01*
X117496137Y-96594906D01*
X117503876Y-96615654D01*
X117501013Y-96628814D01*
X117502930Y-96642147D01*
X117493730Y-96662290D01*
X117489024Y-96683927D01*
X117475755Y-96701652D01*
X117473905Y-96705703D01*
X117467873Y-96712181D01*
X117366873Y-96813181D01*
X117305550Y-96846666D01*
X117279192Y-96849500D01*
X115435929Y-96849500D01*
X115310261Y-96874497D01*
X115310255Y-96874499D01*
X115191875Y-96923533D01*
X115191866Y-96923538D01*
X115085331Y-96994723D01*
X115085327Y-96994726D01*
X114994726Y-97085327D01*
X114994723Y-97085331D01*
X114923538Y-97191866D01*
X114923533Y-97191875D01*
X114874499Y-97310255D01*
X114874497Y-97310261D01*
X114849500Y-97435928D01*
X114849500Y-99517500D01*
X114829815Y-99584539D01*
X114777011Y-99630294D01*
X114725500Y-99641500D01*
X113038129Y-99641500D01*
X113038123Y-99641501D01*
X112978516Y-99647908D01*
X112843671Y-99698202D01*
X112843664Y-99698206D01*
X112728455Y-99784452D01*
X112728452Y-99784455D01*
X112642206Y-99899664D01*
X112642202Y-99899671D01*
X112591908Y-100034517D01*
X112585501Y-100094116D01*
X112585500Y-100094135D01*
X112585500Y-101889870D01*
X112585501Y-101889876D01*
X112591908Y-101949483D01*
X112642202Y-102084328D01*
X112642206Y-102084335D01*
X112728452Y-102199544D01*
X112728455Y-102199547D01*
X112843664Y-102285793D01*
X112843671Y-102285797D01*
X112888618Y-102302561D01*
X112978517Y-102336091D01*
X113038127Y-102342500D01*
X113048685Y-102342499D01*
X113115723Y-102362179D01*
X113136372Y-102378818D01*
X113806591Y-103049037D01*
X113743007Y-103066075D01*
X113628993Y-103131901D01*
X113535901Y-103224993D01*
X113470075Y-103339007D01*
X113453037Y-103402591D01*
X112820728Y-102770282D01*
X112820727Y-102770282D01*
X112781380Y-102824439D01*
X112684904Y-103013782D01*
X112619242Y-103215869D01*
X112619242Y-103215872D01*
X112586000Y-103425753D01*
X112586000Y-103638246D01*
X112619242Y-103848127D01*
X112619242Y-103848130D01*
X112684904Y-104050217D01*
X112781375Y-104239550D01*
X112820728Y-104293716D01*
X113453037Y-103661408D01*
X113470075Y-103724993D01*
X113535901Y-103839007D01*
X113628993Y-103932099D01*
X113743007Y-103997925D01*
X113806589Y-104014962D01*
X113174282Y-104647269D01*
X113174282Y-104647270D01*
X113228452Y-104686626D01*
X113228451Y-104686626D01*
X113237495Y-104691234D01*
X113288292Y-104739208D01*
X113305087Y-104807029D01*
X113282550Y-104873164D01*
X113237499Y-104912202D01*
X113228182Y-104916949D01*
X113056213Y-105041890D01*
X112905890Y-105192213D01*
X112780951Y-105364179D01*
X112684444Y-105553585D01*
X112618753Y-105755760D01*
X112617486Y-105763760D01*
X112585500Y-105965713D01*
X112585500Y-106178287D01*
X112618754Y-106388243D01*
X112621353Y-106396243D01*
X112684444Y-106590414D01*
X112780951Y-106779820D01*
X112905890Y-106951786D01*
X113056213Y-107102109D01*
X113228182Y-107227050D01*
X113236946Y-107231516D01*
X113287742Y-107279491D01*
X113304536Y-107347312D01*
X113281998Y-107413447D01*
X113236946Y-107452484D01*
X113228182Y-107456949D01*
X113056213Y-107581890D01*
X112905890Y-107732213D01*
X112780951Y-107904179D01*
X112684444Y-108093585D01*
X112618753Y-108295760D01*
X112585500Y-108505713D01*
X112585500Y-108718287D01*
X112618754Y-108928243D01*
X112621353Y-108936243D01*
X112684444Y-109130414D01*
X112780951Y-109319820D01*
X112905890Y-109491786D01*
X113056213Y-109642109D01*
X113228182Y-109767050D01*
X113236946Y-109771516D01*
X113287742Y-109819491D01*
X113304536Y-109887312D01*
X113281998Y-109953447D01*
X113236946Y-109992484D01*
X113228182Y-109996949D01*
X113056213Y-110121890D01*
X112905890Y-110272213D01*
X112780951Y-110444179D01*
X112684444Y-110633585D01*
X112618753Y-110835760D01*
X112585500Y-111045713D01*
X112585500Y-111258286D01*
X112617492Y-111460279D01*
X112618754Y-111468243D01*
X112682774Y-111665276D01*
X112684444Y-111670414D01*
X112780951Y-111859820D01*
X112905890Y-112031786D01*
X113056213Y-112182109D01*
X113228182Y-112307050D01*
X113236946Y-112311516D01*
X113287742Y-112359491D01*
X113304536Y-112427312D01*
X113281998Y-112493447D01*
X113236946Y-112532484D01*
X113228182Y-112536949D01*
X113056213Y-112661890D01*
X112905890Y-112812213D01*
X112780951Y-112984179D01*
X112684444Y-113173585D01*
X112618753Y-113375760D01*
X112585500Y-113585713D01*
X112585500Y-113798286D01*
X112617492Y-114000279D01*
X112618754Y-114008243D01*
X112678419Y-114191873D01*
X112684444Y-114210414D01*
X112780951Y-114399820D01*
X112905890Y-114571786D01*
X113056213Y-114722109D01*
X113228182Y-114847050D01*
X113236946Y-114851516D01*
X113287742Y-114899491D01*
X113304536Y-114967312D01*
X113281998Y-115033447D01*
X113236946Y-115072484D01*
X113228182Y-115076949D01*
X113056213Y-115201890D01*
X112905890Y-115352213D01*
X112780951Y-115524179D01*
X112684444Y-115713585D01*
X112618753Y-115915760D01*
X112617486Y-115923760D01*
X112585500Y-116125713D01*
X112585500Y-116338287D01*
X112618754Y-116548243D01*
X112621353Y-116556243D01*
X112684444Y-116750414D01*
X112780951Y-116939820D01*
X112905890Y-117111786D01*
X113056213Y-117262109D01*
X113228182Y-117387050D01*
X113236946Y-117391516D01*
X113287742Y-117439491D01*
X113304536Y-117507312D01*
X113281998Y-117573447D01*
X113236946Y-117612484D01*
X113228182Y-117616949D01*
X113056213Y-117741890D01*
X112905890Y-117892213D01*
X112780951Y-118064179D01*
X112684444Y-118253585D01*
X112618753Y-118455760D01*
X112585500Y-118665712D01*
X112585500Y-118665713D01*
X112585500Y-118878287D01*
X112618754Y-119088243D01*
X112682773Y-119285273D01*
X112684444Y-119290414D01*
X112780951Y-119479820D01*
X112905890Y-119651786D01*
X113056213Y-119802109D01*
X113228179Y-119927048D01*
X113228181Y-119927049D01*
X113228184Y-119927051D01*
X113417588Y-120023557D01*
X113619757Y-120089246D01*
X113829713Y-120122500D01*
X113829714Y-120122500D01*
X114042286Y-120122500D01*
X114042287Y-120122500D01*
X114252243Y-120089246D01*
X114454412Y-120023557D01*
X114643816Y-119927051D01*
X114665789Y-119911086D01*
X114815786Y-119802109D01*
X114815788Y-119802106D01*
X114815792Y-119802104D01*
X114966104Y-119651792D01*
X114966106Y-119651788D01*
X114966109Y-119651786D01*
X115091048Y-119479820D01*
X115091047Y-119479820D01*
X115091051Y-119479816D01*
X115187557Y-119290412D01*
X115253246Y-119088243D01*
X115286500Y-118878287D01*
X115286500Y-118665713D01*
X115253246Y-118455757D01*
X115187557Y-118253588D01*
X115091051Y-118064184D01*
X115091049Y-118064181D01*
X115091048Y-118064179D01*
X114966109Y-117892213D01*
X114815786Y-117741890D01*
X114643820Y-117616951D01*
X114643115Y-117616591D01*
X114635054Y-117612485D01*
X114584259Y-117564512D01*
X114567463Y-117496692D01*
X114589999Y-117430556D01*
X114635054Y-117391515D01*
X114643816Y-117387051D01*
X114665789Y-117371086D01*
X114815786Y-117262109D01*
X114815788Y-117262106D01*
X114815792Y-117262104D01*
X114966104Y-117111792D01*
X114966106Y-117111788D01*
X114966109Y-117111786D01*
X115091048Y-116939820D01*
X115091047Y-116939820D01*
X115091051Y-116939816D01*
X115187557Y-116750412D01*
X115253246Y-116548243D01*
X115286500Y-116338287D01*
X115286500Y-116125713D01*
X115253246Y-115915757D01*
X115187557Y-115713588D01*
X115091051Y-115524184D01*
X115091049Y-115524181D01*
X115091048Y-115524179D01*
X114966109Y-115352213D01*
X114815786Y-115201890D01*
X114643820Y-115076951D01*
X114643115Y-115076591D01*
X114635054Y-115072485D01*
X114584259Y-115024512D01*
X114567463Y-114956692D01*
X114589999Y-114890556D01*
X114635054Y-114851515D01*
X114643816Y-114847051D01*
X114679938Y-114820807D01*
X114815786Y-114722109D01*
X114815788Y-114722106D01*
X114815792Y-114722104D01*
X114966104Y-114571792D01*
X114966106Y-114571788D01*
X114966109Y-114571786D01*
X115091048Y-114399820D01*
X115091047Y-114399820D01*
X115091051Y-114399816D01*
X115187557Y-114210412D01*
X115253246Y-114008243D01*
X115286500Y-113798287D01*
X115286500Y-113585713D01*
X115253246Y-113375757D01*
X115187557Y-113173588D01*
X115091051Y-112984184D01*
X115091049Y-112984181D01*
X115091048Y-112984179D01*
X114966109Y-112812213D01*
X114815786Y-112661890D01*
X114643820Y-112536951D01*
X114643115Y-112536591D01*
X114635054Y-112532485D01*
X114584259Y-112484512D01*
X114567463Y-112416692D01*
X114589999Y-112350556D01*
X114635054Y-112311515D01*
X114643816Y-112307051D01*
X114665789Y-112291086D01*
X114815786Y-112182109D01*
X114815788Y-112182106D01*
X114815792Y-112182104D01*
X114966104Y-112031792D01*
X114966106Y-112031788D01*
X114966109Y-112031786D01*
X115053678Y-111911255D01*
X115091051Y-111859816D01*
X115140833Y-111762112D01*
X115188804Y-111711319D01*
X115256625Y-111694523D01*
X115320207Y-111715307D01*
X115351866Y-111736461D01*
X115351872Y-111736464D01*
X115351873Y-111736465D01*
X115470256Y-111785501D01*
X115470260Y-111785501D01*
X115470261Y-111785502D01*
X115595928Y-111810500D01*
X115595931Y-111810500D01*
X116240382Y-111810500D01*
X116307421Y-111830185D01*
X116341099Y-111864591D01*
X116342085Y-111863875D01*
X116469890Y-112039786D01*
X116620213Y-112190109D01*
X116792182Y-112315050D01*
X116800946Y-112319516D01*
X116851742Y-112367491D01*
X116868536Y-112435312D01*
X116845998Y-112501447D01*
X116800946Y-112540484D01*
X116792182Y-112544949D01*
X116620213Y-112669890D01*
X116469890Y-112820213D01*
X116344951Y-112992179D01*
X116248444Y-113181585D01*
X116182753Y-113383760D01*
X116149500Y-113593713D01*
X116149500Y-113806286D01*
X116180225Y-114000279D01*
X116182754Y-114016243D01*
X116245844Y-114210414D01*
X116248444Y-114218414D01*
X116344951Y-114407820D01*
X116469890Y-114579786D01*
X116620213Y-114730109D01*
X116792182Y-114855050D01*
X116800946Y-114859516D01*
X116851742Y-114907491D01*
X116868536Y-114975312D01*
X116845998Y-115041447D01*
X116800946Y-115080484D01*
X116792182Y-115084949D01*
X116620213Y-115209890D01*
X116469890Y-115360213D01*
X116344951Y-115532179D01*
X116248444Y-115721585D01*
X116182753Y-115923760D01*
X116150767Y-116125713D01*
X116149500Y-116133713D01*
X116149500Y-116346287D01*
X116182754Y-116556243D01*
X116245844Y-116750414D01*
X116248444Y-116758414D01*
X116344951Y-116947820D01*
X116469890Y-117119786D01*
X116620213Y-117270109D01*
X116792182Y-117395050D01*
X116800946Y-117399516D01*
X116851742Y-117447491D01*
X116868536Y-117515312D01*
X116845998Y-117581447D01*
X116800946Y-117620484D01*
X116792182Y-117624949D01*
X116620213Y-117749890D01*
X116469890Y-117900213D01*
X116344951Y-118072179D01*
X116248444Y-118261585D01*
X116182753Y-118463760D01*
X116166866Y-118564069D01*
X116149500Y-118673713D01*
X116149500Y-118886287D01*
X116182754Y-119096243D01*
X116245844Y-119290414D01*
X116248444Y-119298414D01*
X116344951Y-119487820D01*
X116469890Y-119659786D01*
X116620213Y-119810109D01*
X116792179Y-119935048D01*
X116792181Y-119935049D01*
X116792184Y-119935051D01*
X116981588Y-120031557D01*
X117183757Y-120097246D01*
X117393713Y-120130500D01*
X117393714Y-120130500D01*
X117606286Y-120130500D01*
X117606287Y-120130500D01*
X117816243Y-120097246D01*
X118018412Y-120031557D01*
X118207816Y-119935051D01*
X118229789Y-119919086D01*
X118379786Y-119810109D01*
X118379788Y-119810106D01*
X118379792Y-119810104D01*
X118530104Y-119659792D01*
X118530106Y-119659788D01*
X118530109Y-119659786D01*
X118657915Y-119483875D01*
X118659259Y-119484851D01*
X118705705Y-119442834D01*
X118759618Y-119430500D01*
X122784071Y-119430500D01*
X122868615Y-119413682D01*
X122909744Y-119405501D01*
X123028127Y-119356465D01*
X123134669Y-119285277D01*
X123505277Y-118914669D01*
X123576465Y-118808127D01*
X123625501Y-118689743D01*
X123630281Y-118665713D01*
X123650500Y-118564069D01*
X123650500Y-114820807D01*
X123670185Y-114753768D01*
X123686819Y-114733126D01*
X131133126Y-107286819D01*
X131194449Y-107253334D01*
X131220807Y-107250500D01*
X139964071Y-107250500D01*
X140059505Y-107231516D01*
X140089744Y-107225501D01*
X140208127Y-107176465D01*
X140314669Y-107105277D01*
X144405276Y-103014670D01*
X144476465Y-102908127D01*
X144525501Y-102789744D01*
X144532560Y-102754256D01*
X144550500Y-102664069D01*
X144550500Y-94630429D01*
X144570185Y-94563390D01*
X144622989Y-94517635D01*
X144692147Y-94507691D01*
X144712801Y-94512494D01*
X144819757Y-94547246D01*
X145029713Y-94580500D01*
X145029714Y-94580500D01*
X145242286Y-94580500D01*
X145242287Y-94580500D01*
X145452243Y-94547246D01*
X145654412Y-94481557D01*
X145843816Y-94385051D01*
X145898572Y-94345269D01*
X146015786Y-94260109D01*
X146015788Y-94260106D01*
X146015792Y-94260104D01*
X146166104Y-94109792D01*
X146166106Y-94109788D01*
X146166109Y-94109786D01*
X146291048Y-93937820D01*
X146291047Y-93937820D01*
X146291051Y-93937816D01*
X146387557Y-93748412D01*
X146453246Y-93546243D01*
X146486500Y-93336287D01*
X146486500Y-93123713D01*
X146453246Y-92913757D01*
X146387557Y-92711588D01*
X146291051Y-92522184D01*
X146291049Y-92522181D01*
X146291048Y-92522179D01*
X146166109Y-92350213D01*
X146015786Y-92199890D01*
X145843820Y-92074951D01*
X145654414Y-91978444D01*
X145654413Y-91978443D01*
X145654412Y-91978443D01*
X145452243Y-91912754D01*
X145452241Y-91912753D01*
X145452240Y-91912753D01*
X145290957Y-91887208D01*
X145242287Y-91879500D01*
X145029713Y-91879500D01*
X144990202Y-91885757D01*
X144819759Y-91912753D01*
X144695227Y-91953216D01*
X144625385Y-91955211D01*
X144565553Y-91919130D01*
X144540514Y-91878042D01*
X144537178Y-91868962D01*
X144525501Y-91810256D01*
X144476465Y-91691873D01*
X144475042Y-91689744D01*
X144405277Y-91585331D01*
X144405275Y-91585329D01*
X144405273Y-91585326D01*
X143814673Y-90994726D01*
X143708131Y-90923538D01*
X143708127Y-90923535D01*
X143708122Y-90923533D01*
X143659089Y-90903223D01*
X143589744Y-90874499D01*
X143589742Y-90874498D01*
X143589741Y-90874498D01*
X143584727Y-90873501D01*
X143584722Y-90873500D01*
X143464071Y-90849500D01*
X143464069Y-90849500D01*
X134935931Y-90849500D01*
X134935929Y-90849500D01*
X134815278Y-90873500D01*
X134815273Y-90873501D01*
X134810258Y-90874498D01*
X134810257Y-90874498D01*
X134691875Y-90923533D01*
X134691866Y-90923538D01*
X134585334Y-90994721D01*
X134470723Y-91109330D01*
X134415570Y-91191874D01*
X134399535Y-91215871D01*
X134350499Y-91334255D01*
X134350497Y-91334261D01*
X134325500Y-91459928D01*
X134325500Y-91970382D01*
X134305815Y-92037421D01*
X134271408Y-92071099D01*
X134272125Y-92072085D01*
X134096213Y-92199890D01*
X133945890Y-92350213D01*
X133820949Y-92522182D01*
X133816202Y-92531499D01*
X133768227Y-92582293D01*
X133700405Y-92599087D01*
X133634271Y-92576548D01*
X133595234Y-92531495D01*
X133590626Y-92522452D01*
X133551270Y-92468282D01*
X133551269Y-92468282D01*
X132918962Y-93100590D01*
X132901925Y-93037007D01*
X132836099Y-92922993D01*
X132743007Y-92829901D01*
X132628993Y-92764075D01*
X132565409Y-92747037D01*
X133197716Y-92114728D01*
X133143550Y-92075375D01*
X132954217Y-91978904D01*
X132752129Y-91913242D01*
X132542246Y-91880000D01*
X132329754Y-91880000D01*
X132119872Y-91913242D01*
X132119869Y-91913242D01*
X131917782Y-91978904D01*
X131728439Y-92075380D01*
X131674282Y-92114727D01*
X131674282Y-92114728D01*
X132306591Y-92747037D01*
X132243007Y-92764075D01*
X132128993Y-92829901D01*
X132035901Y-92922993D01*
X131970075Y-93037007D01*
X131953037Y-93100591D01*
X131320728Y-92468282D01*
X131320727Y-92468282D01*
X131281380Y-92522440D01*
X131281376Y-92522446D01*
X131276760Y-92531505D01*
X131228781Y-92582297D01*
X131160959Y-92599087D01*
X131094826Y-92576543D01*
X131055794Y-92531493D01*
X131051051Y-92522184D01*
X131051049Y-92522181D01*
X131051048Y-92522179D01*
X130926109Y-92350213D01*
X130775786Y-92199890D01*
X130603820Y-92074951D01*
X130414414Y-91978444D01*
X130414413Y-91978443D01*
X130414412Y-91978443D01*
X130212243Y-91912754D01*
X130212241Y-91912753D01*
X130212240Y-91912753D01*
X130050957Y-91887208D01*
X130002287Y-91879500D01*
X129789713Y-91879500D01*
X129741042Y-91887208D01*
X129579760Y-91912753D01*
X129377585Y-91978444D01*
X129188179Y-92074951D01*
X129016215Y-92199889D01*
X128902673Y-92313431D01*
X128841350Y-92346915D01*
X128771658Y-92341931D01*
X128715725Y-92300059D01*
X128698810Y-92269082D01*
X128649797Y-92137671D01*
X128649793Y-92137664D01*
X128563547Y-92022455D01*
X128563544Y-92022452D01*
X128448335Y-91936206D01*
X128448328Y-91936202D01*
X128313482Y-91885908D01*
X128313483Y-91885908D01*
X128253883Y-91879501D01*
X128253881Y-91879500D01*
X128253873Y-91879500D01*
X128253864Y-91879500D01*
X126458129Y-91879500D01*
X126458123Y-91879501D01*
X126398516Y-91885908D01*
X126263671Y-91936202D01*
X126263664Y-91936206D01*
X126148455Y-92022452D01*
X126148452Y-92022455D01*
X126062206Y-92137664D01*
X126062202Y-92137671D01*
X126011908Y-92272517D01*
X126005501Y-92332116D01*
X126005500Y-92332135D01*
X126005500Y-94127870D01*
X126005501Y-94127876D01*
X126011908Y-94187483D01*
X126062202Y-94322328D01*
X126062206Y-94322335D01*
X126148452Y-94437544D01*
X126148455Y-94437547D01*
X126263664Y-94523793D01*
X126263671Y-94523797D01*
X126398517Y-94574091D01*
X126398516Y-94574091D01*
X126405444Y-94574835D01*
X126458127Y-94580500D01*
X128253872Y-94580499D01*
X128313483Y-94574091D01*
X128448331Y-94523796D01*
X128563546Y-94437546D01*
X128649796Y-94322331D01*
X128698810Y-94190916D01*
X128740681Y-94134984D01*
X128806145Y-94110566D01*
X128874418Y-94125417D01*
X128902673Y-94146569D01*
X129016213Y-94260109D01*
X129188179Y-94385048D01*
X129188181Y-94385049D01*
X129188184Y-94385051D01*
X129377588Y-94481557D01*
X129579757Y-94547246D01*
X129789713Y-94580500D01*
X129789714Y-94580500D01*
X130002286Y-94580500D01*
X130002287Y-94580500D01*
X130212243Y-94547246D01*
X130414412Y-94481557D01*
X130603816Y-94385051D01*
X130658572Y-94345269D01*
X130775786Y-94260109D01*
X130775788Y-94260106D01*
X130775792Y-94260104D01*
X130926104Y-94109792D01*
X130926106Y-94109788D01*
X130926109Y-94109786D01*
X131011890Y-93991717D01*
X131051051Y-93937816D01*
X131055793Y-93928508D01*
X131103763Y-93877711D01*
X131171583Y-93860911D01*
X131237719Y-93883445D01*
X131276763Y-93928500D01*
X131281373Y-93937547D01*
X131320728Y-93991716D01*
X131953037Y-93359408D01*
X131970075Y-93422993D01*
X132035901Y-93537007D01*
X132128993Y-93630099D01*
X132243007Y-93695925D01*
X132306590Y-93712962D01*
X131674282Y-94345269D01*
X131674282Y-94345270D01*
X131728449Y-94384624D01*
X131917782Y-94481095D01*
X132119870Y-94546757D01*
X132329754Y-94580000D01*
X132542246Y-94580000D01*
X132752127Y-94546757D01*
X132752130Y-94546757D01*
X132954217Y-94481095D01*
X133143554Y-94384622D01*
X133197716Y-94345270D01*
X133197717Y-94345270D01*
X132565408Y-93712962D01*
X132628993Y-93695925D01*
X132743007Y-93630099D01*
X132836099Y-93537007D01*
X132901925Y-93422993D01*
X132918962Y-93359408D01*
X133551270Y-93991717D01*
X133551270Y-93991716D01*
X133590622Y-93937555D01*
X133595232Y-93928507D01*
X133643205Y-93877709D01*
X133711025Y-93860912D01*
X133777161Y-93883447D01*
X133816204Y-93928504D01*
X133820949Y-93937817D01*
X133945890Y-94109786D01*
X134096213Y-94260109D01*
X134268179Y-94385048D01*
X134268181Y-94385049D01*
X134268184Y-94385051D01*
X134457588Y-94481557D01*
X134659757Y-94547246D01*
X134869713Y-94580500D01*
X134869714Y-94580500D01*
X135082286Y-94580500D01*
X135082287Y-94580500D01*
X135292243Y-94547246D01*
X135494412Y-94481557D01*
X135683816Y-94385051D01*
X135738572Y-94345269D01*
X135855786Y-94260109D01*
X135855788Y-94260106D01*
X135855792Y-94260104D01*
X136006104Y-94109792D01*
X136006106Y-94109788D01*
X136006109Y-94109786D01*
X136131048Y-93937820D01*
X136131047Y-93937820D01*
X136131051Y-93937816D01*
X136135514Y-93929054D01*
X136183488Y-93878259D01*
X136251308Y-93861463D01*
X136317444Y-93883999D01*
X136356486Y-93929056D01*
X136360951Y-93937820D01*
X136485890Y-94109786D01*
X136636213Y-94260109D01*
X136808179Y-94385048D01*
X136808181Y-94385049D01*
X136808184Y-94385051D01*
X136997588Y-94481557D01*
X137199757Y-94547246D01*
X137409713Y-94580500D01*
X137409714Y-94580500D01*
X137622286Y-94580500D01*
X137622287Y-94580500D01*
X137832243Y-94547246D01*
X138034412Y-94481557D01*
X138223816Y-94385051D01*
X138278572Y-94345269D01*
X138395786Y-94260109D01*
X138395788Y-94260106D01*
X138395792Y-94260104D01*
X138546104Y-94109792D01*
X138546106Y-94109788D01*
X138546109Y-94109786D01*
X138671048Y-93937820D01*
X138671047Y-93937820D01*
X138671051Y-93937816D01*
X138675514Y-93929054D01*
X138723488Y-93878259D01*
X138791308Y-93861463D01*
X138857444Y-93883999D01*
X138896486Y-93929056D01*
X138900951Y-93937820D01*
X139025890Y-94109786D01*
X139025896Y-94109792D01*
X139176208Y-94260104D01*
X139348184Y-94385051D01*
X139348188Y-94385053D01*
X139352126Y-94387914D01*
X139351146Y-94389262D01*
X139393160Y-94435690D01*
X139405500Y-94489617D01*
X139405500Y-102623192D01*
X139385815Y-102690231D01*
X139369181Y-102710873D01*
X138766873Y-103313181D01*
X138705550Y-103346666D01*
X138679192Y-103349500D01*
X129675929Y-103349500D01*
X129550261Y-103374497D01*
X129550255Y-103374499D01*
X129431874Y-103423534D01*
X129325326Y-103494726D01*
X129325325Y-103494727D01*
X119062181Y-113757872D01*
X119000858Y-113791357D01*
X118931166Y-113786373D01*
X118875233Y-113744501D01*
X118850816Y-113679037D01*
X118850500Y-113670191D01*
X118850500Y-113593713D01*
X118816484Y-113378945D01*
X118818123Y-113378685D01*
X118821257Y-113316126D01*
X118850655Y-113269289D01*
X123505277Y-108614669D01*
X123576466Y-108508126D01*
X123625501Y-108389743D01*
X123639342Y-108320165D01*
X123650500Y-108264069D01*
X123650500Y-97935931D01*
X123650500Y-90320807D01*
X123670185Y-90253768D01*
X123686819Y-90233126D01*
X130005273Y-83914672D01*
X130005276Y-83914669D01*
X130076465Y-83808127D01*
X130125501Y-83689744D01*
X130150500Y-83564069D01*
X130150500Y-75820808D01*
X130170185Y-75753769D01*
X130186819Y-75733127D01*
X133171938Y-72748008D01*
X133171943Y-72748003D01*
X133243132Y-72641460D01*
X133292168Y-72523077D01*
X133317167Y-72397402D01*
X133317167Y-71315783D01*
X133336852Y-71248744D01*
X133353481Y-71228106D01*
X133443806Y-71137782D01*
X133553299Y-70973914D01*
X133577402Y-70915723D01*
X133604280Y-70875496D01*
X133979778Y-70499999D01*
X133604280Y-70124501D01*
X133577400Y-70084272D01*
X133553302Y-70026092D01*
X133553300Y-70026088D01*
X133553299Y-70026086D01*
X133503882Y-69952128D01*
X133443806Y-69862217D01*
X133304452Y-69722863D01*
X133304448Y-69722860D01*
X133176588Y-69637426D01*
X133824311Y-69637426D01*
X134422428Y-70235542D01*
X134444136Y-70275298D01*
X134383061Y-70250000D01*
X134283605Y-70250000D01*
X134191719Y-70288060D01*
X134121393Y-70358386D01*
X134083333Y-70450272D01*
X134083333Y-70549728D01*
X134121393Y-70641614D01*
X134191719Y-70711940D01*
X134283605Y-70750000D01*
X134383061Y-70750000D01*
X134449371Y-70722533D01*
X134422428Y-70764457D01*
X133824312Y-71362572D01*
X133859661Y-71386192D01*
X134041639Y-71461569D01*
X134041651Y-71461572D01*
X134234837Y-71499999D01*
X134234841Y-71500000D01*
X134431825Y-71500000D01*
X134431828Y-71499999D01*
X134625014Y-71461572D01*
X134625026Y-71461569D01*
X134807004Y-71386192D01*
X134807016Y-71386185D01*
X134947179Y-71292531D01*
X135013856Y-71271653D01*
X135081236Y-71290137D01*
X135115336Y-71321321D01*
X135142455Y-71357547D01*
X135257664Y-71443793D01*
X135257671Y-71443797D01*
X135392517Y-71494091D01*
X135392516Y-71494091D01*
X135399444Y-71494835D01*
X135452127Y-71500500D01*
X136547872Y-71500499D01*
X136607483Y-71494091D01*
X136742331Y-71443796D01*
X136857546Y-71357546D01*
X136943796Y-71242331D01*
X136994091Y-71107483D01*
X137000500Y-71047873D01*
X137000499Y-69952128D01*
X136994091Y-69892517D01*
X136982790Y-69862218D01*
X136943797Y-69757671D01*
X136943793Y-69757664D01*
X136857547Y-69642455D01*
X136857544Y-69642452D01*
X136742335Y-69556206D01*
X136742328Y-69556202D01*
X136607482Y-69505908D01*
X136607483Y-69505908D01*
X136547883Y-69499501D01*
X136547881Y-69499500D01*
X136547873Y-69499500D01*
X136547864Y-69499500D01*
X135452129Y-69499500D01*
X135452123Y-69499501D01*
X135392516Y-69505908D01*
X135257671Y-69556202D01*
X135257664Y-69556206D01*
X135142455Y-69642452D01*
X135142453Y-69642454D01*
X135115335Y-69678679D01*
X135059401Y-69720549D01*
X134989709Y-69725532D01*
X134947179Y-69707468D01*
X134807017Y-69613814D01*
X134807004Y-69613807D01*
X134625026Y-69538430D01*
X134625014Y-69538427D01*
X134431828Y-69500000D01*
X134234837Y-69500000D01*
X134041651Y-69538427D01*
X134041643Y-69538429D01*
X133859658Y-69613809D01*
X133859651Y-69613813D01*
X133824312Y-69637426D01*
X133824311Y-69637426D01*
X133176588Y-69637426D01*
X133140587Y-69613371D01*
X133140574Y-69613364D01*
X132958506Y-69537950D01*
X132958496Y-69537947D01*
X132765210Y-69499500D01*
X132765208Y-69499500D01*
X132568126Y-69499500D01*
X132568124Y-69499500D01*
X132374837Y-69537947D01*
X132374827Y-69537950D01*
X132192759Y-69613364D01*
X132192746Y-69613371D01*
X132028885Y-69722860D01*
X131921014Y-69830731D01*
X131859691Y-69864215D01*
X131789999Y-69859231D01*
X131745652Y-69830730D01*
X131637785Y-69722863D01*
X131637781Y-69722860D01*
X131473920Y-69613371D01*
X131473907Y-69613364D01*
X131291839Y-69537950D01*
X131291829Y-69537947D01*
X131098543Y-69499500D01*
X131098541Y-69499500D01*
X130901459Y-69499500D01*
X130901457Y-69499500D01*
X130708170Y-69537947D01*
X130708160Y-69537950D01*
X130526092Y-69613364D01*
X130526079Y-69613371D01*
X130362218Y-69722860D01*
X130362214Y-69722863D01*
X130222863Y-69862214D01*
X130222860Y-69862218D01*
X130113371Y-70026079D01*
X130113364Y-70026092D01*
X130037950Y-70208160D01*
X130037947Y-70208170D01*
X129999500Y-70401456D01*
X129999500Y-70529191D01*
X129979815Y-70596230D01*
X129963181Y-70616872D01*
X126494727Y-74085325D01*
X126494726Y-74085326D01*
X126423534Y-74191874D01*
X126374499Y-74310255D01*
X126374497Y-74310261D01*
X126349500Y-74435928D01*
X126349500Y-82179191D01*
X126329815Y-82246230D01*
X126313181Y-82266872D01*
X119994727Y-88585325D01*
X119994726Y-88585326D01*
X119923534Y-88691874D01*
X119874499Y-88810255D01*
X119874497Y-88810261D01*
X119849500Y-88935928D01*
X119849500Y-94279191D01*
X119829815Y-94346230D01*
X119813181Y-94366872D01*
X118212181Y-95967872D01*
X118150858Y-96001357D01*
X118081166Y-95996373D01*
X118025233Y-95954501D01*
X118000816Y-95889037D01*
X118000500Y-95880191D01*
X118000500Y-68124500D01*
X118020185Y-68057461D01*
X118072989Y-68011706D01*
X118124500Y-68000500D01*
X149375500Y-68000500D01*
X149442539Y-68020185D01*
G37*
%TD.AperFunction*%
%TA.AperFunction,Conductor*%
G36*
X131876666Y-71140768D02*
G01*
X131921013Y-71169268D01*
X131979847Y-71228101D01*
X132013333Y-71289424D01*
X132016167Y-71315783D01*
X132016167Y-72012525D01*
X131996482Y-72079564D01*
X131979848Y-72100206D01*
X128994722Y-75085331D01*
X128994717Y-75085337D01*
X128967885Y-75125498D01*
X128967883Y-75125501D01*
X128950119Y-75152086D01*
X128923534Y-75191873D01*
X128874499Y-75310255D01*
X128874497Y-75310261D01*
X128849500Y-75435928D01*
X128849500Y-83179192D01*
X128829815Y-83246231D01*
X128813181Y-83266873D01*
X122494722Y-89585331D01*
X122494717Y-89585337D01*
X122467885Y-89625498D01*
X122467883Y-89625501D01*
X122450119Y-89652086D01*
X122423534Y-89691873D01*
X122374499Y-89810255D01*
X122374497Y-89810261D01*
X122349500Y-89935928D01*
X122349500Y-107879191D01*
X122329815Y-107946230D01*
X122313181Y-107966872D01*
X119062181Y-111217872D01*
X119000858Y-111251357D01*
X118931166Y-111246373D01*
X118875233Y-111204501D01*
X118850816Y-111139037D01*
X118850500Y-111130191D01*
X118850500Y-111053713D01*
X118817246Y-110843760D01*
X118817246Y-110843757D01*
X118751557Y-110641588D01*
X118655051Y-110452184D01*
X118655049Y-110452181D01*
X118655048Y-110452179D01*
X118530109Y-110280213D01*
X118379786Y-110129890D01*
X118207820Y-110004951D01*
X118207115Y-110004591D01*
X118199054Y-110000485D01*
X118148259Y-109952512D01*
X118131463Y-109884692D01*
X118153999Y-109818556D01*
X118199054Y-109779515D01*
X118207816Y-109775051D01*
X118229789Y-109759086D01*
X118379786Y-109650109D01*
X118379788Y-109650106D01*
X118379792Y-109650104D01*
X118530104Y-109499792D01*
X118530106Y-109499788D01*
X118530109Y-109499786D01*
X118655048Y-109327820D01*
X118655047Y-109327820D01*
X118655051Y-109327816D01*
X118751557Y-109138412D01*
X118817246Y-108936243D01*
X118850500Y-108726287D01*
X118850500Y-108513713D01*
X118817246Y-108303757D01*
X118751557Y-108101588D01*
X118655051Y-107912184D01*
X118655049Y-107912181D01*
X118655048Y-107912179D01*
X118530109Y-107740213D01*
X118379786Y-107589890D01*
X118207820Y-107464951D01*
X118207115Y-107464591D01*
X118199054Y-107460485D01*
X118148259Y-107412512D01*
X118131463Y-107344692D01*
X118153999Y-107278556D01*
X118199054Y-107239515D01*
X118207816Y-107235051D01*
X118229789Y-107219086D01*
X118379786Y-107110109D01*
X118379788Y-107110106D01*
X118379792Y-107110104D01*
X118530104Y-106959792D01*
X118530106Y-106959788D01*
X118530109Y-106959786D01*
X118655048Y-106787820D01*
X118655047Y-106787820D01*
X118655051Y-106787816D01*
X118751557Y-106598412D01*
X118817246Y-106396243D01*
X118850500Y-106186287D01*
X118850500Y-105973713D01*
X118817246Y-105763757D01*
X118751557Y-105561588D01*
X118655051Y-105372184D01*
X118655049Y-105372181D01*
X118655048Y-105372179D01*
X118530109Y-105200213D01*
X118379786Y-105049890D01*
X118207817Y-104924949D01*
X118198504Y-104920204D01*
X118147707Y-104872230D01*
X118130912Y-104804409D01*
X118153449Y-104738274D01*
X118198507Y-104699232D01*
X118207555Y-104694622D01*
X118261716Y-104655270D01*
X118261717Y-104655270D01*
X117629408Y-104022962D01*
X117692993Y-104005925D01*
X117807007Y-103940099D01*
X117900099Y-103847007D01*
X117965925Y-103732993D01*
X117982962Y-103669408D01*
X118615270Y-104301717D01*
X118615270Y-104301716D01*
X118654622Y-104247554D01*
X118751095Y-104058217D01*
X118816757Y-103856130D01*
X118816757Y-103856127D01*
X118850000Y-103646246D01*
X118850000Y-103433753D01*
X118816757Y-103223872D01*
X118816757Y-103223869D01*
X118751095Y-103021782D01*
X118654624Y-102832449D01*
X118615270Y-102778282D01*
X118615269Y-102778282D01*
X117982962Y-103410590D01*
X117965925Y-103347007D01*
X117900099Y-103232993D01*
X117807007Y-103139901D01*
X117692993Y-103074075D01*
X117629409Y-103057037D01*
X118299627Y-102386818D01*
X118360950Y-102353333D01*
X118387307Y-102350499D01*
X118397872Y-102350499D01*
X118457483Y-102344091D01*
X118592331Y-102293796D01*
X118707546Y-102207546D01*
X118793796Y-102092331D01*
X118844091Y-101957483D01*
X118850500Y-101897873D01*
X118850499Y-100102128D01*
X118844091Y-100042517D01*
X118841107Y-100034517D01*
X118793797Y-99907671D01*
X118793793Y-99907664D01*
X118707547Y-99792455D01*
X118707544Y-99792452D01*
X118592335Y-99706206D01*
X118592328Y-99706202D01*
X118457482Y-99655908D01*
X118457483Y-99655908D01*
X118397883Y-99649501D01*
X118397881Y-99649500D01*
X118397873Y-99649500D01*
X118397864Y-99649500D01*
X116602129Y-99649500D01*
X116602123Y-99649501D01*
X116542516Y-99655908D01*
X116407671Y-99706202D01*
X116407668Y-99706204D01*
X116348811Y-99750265D01*
X116283347Y-99774682D01*
X116215074Y-99759830D01*
X116165668Y-99710425D01*
X116150500Y-99650998D01*
X116150500Y-98274500D01*
X116170185Y-98207461D01*
X116222989Y-98161706D01*
X116274500Y-98150500D01*
X117664071Y-98150500D01*
X117748615Y-98133682D01*
X117789744Y-98125501D01*
X117908127Y-98076465D01*
X117926679Y-98064069D01*
X118014669Y-98005277D01*
X121005276Y-95014670D01*
X121076465Y-94908127D01*
X121125501Y-94789744D01*
X121150500Y-94664069D01*
X121150500Y-89320807D01*
X121170185Y-89253768D01*
X121186819Y-89233126D01*
X127505273Y-82914672D01*
X127505276Y-82914669D01*
X127576465Y-82808127D01*
X127625501Y-82689744D01*
X127650500Y-82564069D01*
X127650500Y-74820808D01*
X127670185Y-74753769D01*
X127686819Y-74733127D01*
X130883127Y-71536819D01*
X130944450Y-71503334D01*
X130970808Y-71500500D01*
X131098543Y-71500500D01*
X131228582Y-71474632D01*
X131291835Y-71462051D01*
X131473914Y-71386632D01*
X131637782Y-71277139D01*
X131745653Y-71169267D01*
X131806974Y-71135784D01*
X131876666Y-71140768D01*
G37*
%TD.AperFunction*%
%TA.AperFunction,Conductor*%
G36*
X117034075Y-103732993D02*
G01*
X117099901Y-103847007D01*
X117192993Y-103940099D01*
X117307007Y-104005925D01*
X117370590Y-104022962D01*
X116738282Y-104655269D01*
X116738282Y-104655270D01*
X116792452Y-104694626D01*
X116792451Y-104694626D01*
X116801495Y-104699234D01*
X116852292Y-104747208D01*
X116869087Y-104815029D01*
X116846550Y-104881164D01*
X116801499Y-104920202D01*
X116792182Y-104924949D01*
X116620213Y-105049890D01*
X116469894Y-105200209D01*
X116469890Y-105200214D01*
X116374818Y-105331071D01*
X116319488Y-105373737D01*
X116249875Y-105379716D01*
X116188080Y-105347111D01*
X116153723Y-105286272D01*
X116150500Y-105258186D01*
X116150500Y-104360961D01*
X116170185Y-104293922D01*
X116222989Y-104248167D01*
X116292147Y-104238223D01*
X116355703Y-104267248D01*
X116374819Y-104288077D01*
X116384728Y-104301716D01*
X117017037Y-103669408D01*
X117034075Y-103732993D01*
G37*
%TD.AperFunction*%
%TA.AperFunction,Conductor*%
G36*
X116348810Y-102249734D02*
G01*
X116396984Y-102285797D01*
X116407668Y-102293795D01*
X116407671Y-102293797D01*
X116452618Y-102310561D01*
X116542517Y-102344091D01*
X116602127Y-102350500D01*
X116612685Y-102350499D01*
X116679723Y-102370179D01*
X116700372Y-102386818D01*
X117370591Y-103057037D01*
X117307007Y-103074075D01*
X117192993Y-103139901D01*
X117099901Y-103232993D01*
X117034075Y-103347007D01*
X117017037Y-103410591D01*
X116384728Y-102778282D01*
X116384727Y-102778282D01*
X116374819Y-102791921D01*
X116319489Y-102834587D01*
X116249876Y-102840566D01*
X116188080Y-102807961D01*
X116153723Y-102747123D01*
X116150500Y-102719036D01*
X116150500Y-102349001D01*
X116170185Y-102281962D01*
X116222989Y-102236207D01*
X116292147Y-102226263D01*
X116348810Y-102249734D01*
G37*
%TD.AperFunction*%
%TD*%
M02*
