M48
; DRILL file KiCad 10.0.4 date 2026-08-10T16:15:22
; FORMAT={-:-/ absolute / metric / decimal}
; #@! TF.CreationDate,2026-08-10T16:15:22+12:00
; #@! TF.GenerationSoftware,Kicad,Pcbnew,10.0.4
; #@! TF.FileFunction,Plated,1,2,PTH
FMAT,2
METRIC
; #@! TA.AperFunction,Plated,PTH,ViaDrill
T1C0.300
; #@! TA.AperFunction,Plated,PTH,ComponentDrill
T2C0.500
; #@! TA.AperFunction,Plated,PTH,ComponentDrill
T3C1.000
%
G90
G05
T1
X120.5Y-102.5
X130.4Y-131.0
X130.5Y-98.0
X131.0Y-118.0
X134.2Y-75.7
X140.5Y-129.0
T2
X131.0Y-70.5
X132.667Y-70.5
X134.333Y-70.5
X136.0Y-70.5
T3
X113.936Y-100.992
X113.936Y-103.532
X113.936Y-106.072
X113.936Y-108.612
X113.936Y-111.152
X113.936Y-113.692
X113.936Y-116.232
X113.936Y-118.772
X117.5Y-101.0
X117.5Y-103.54
X117.5Y-106.08
X117.5Y-108.62
X117.5Y-111.16
X117.5Y-113.7
X117.5Y-116.24
X117.5Y-118.78
X127.356Y-93.23
X129.896Y-93.23
X132.436Y-93.23
X134.976Y-93.23
X137.516Y-93.23
X140.056Y-93.23
X142.596Y-93.23
X145.136Y-93.23
M30
