%TF.GenerationSoftware,KiCad,Pcbnew,10.0.4*%
%TF.CreationDate,2026-08-10T16:15:37+12:00*%
%TF.ProjectId,ESP32 vario,45535033-3220-4766-9172-696f2e6b6963,rev?*%
%TF.SameCoordinates,Original*%
%TF.FileFunction,Soldermask,Top*%
%TF.FilePolarity,Negative*%
%FSLAX46Y46*%
G04 Gerber Fmt 4.6, Leading zero omitted, Abs format (unit mm)*
G04 Created by KiCad (PCBNEW 10.0.4) date 2026-08-10 16:15:37*
%MOMM*%
%LPD*%
G01*
G04 APERTURE LIST*
G04 Aperture macros list*
%AMRoundRect*
0 Rectangle with rounded corners*
0 $1 Rounding radius*
0 $2 $3 $4 $5 $6 $7 $8 $9 X,Y pos of 4 corners*
0 Add a 4 corners polygon primitive as box body*
4,1,4,$2,$3,$4,$5,$6,$7,$8,$9,$2,$3,0*
0 Add four circle primitives for the rounded corners*
1,1,$1+$1,$2,$3*
1,1,$1+$1,$4,$5*
1,1,$1+$1,$6,$7*
1,1,$1+$1,$8,$9*
0 Add four rect primitives between the rounded corners*
20,1,$1+$1,$2,$3,$4,$5,0*
20,1,$1+$1,$4,$5,$6,$7,0*
20,1,$1+$1,$6,$7,$8,$9,0*
20,1,$1+$1,$8,$9,$2,$3,0*%
G04 Aperture macros list end*
%ADD10R,1.700000X1.700000*%
%ADD11C,1.700000*%
%ADD12RoundRect,0.250000X0.250000X0.475000X-0.250000X0.475000X-0.250000X-0.475000X0.250000X-0.475000X0*%
%ADD13C,1.200000*%
%ADD14RoundRect,0.250000X0.475000X-0.337500X0.475000X0.337500X-0.475000X0.337500X-0.475000X-0.337500X0*%
%ADD15RoundRect,0.250000X0.350000X0.450000X-0.350000X0.450000X-0.350000X-0.450000X0.350000X-0.450000X0*%
%ADD16R,1.000000X1.000000*%
%ADD17C,1.000000*%
G04 APERTURE END LIST*
D10*
%TO.C,BMP580*%
X127356000Y-93230000D03*
D11*
X129896000Y-93230000D03*
X132436000Y-93230000D03*
X134976000Y-93230000D03*
X137516000Y-93230000D03*
X140056000Y-93230000D03*
X142596000Y-93230000D03*
X145136000Y-93230000D03*
%TD*%
D12*
%TO.C,C-100n*%
X136100000Y-73900000D03*
X134200000Y-73900000D03*
%TD*%
D13*
%TO.C,HT-RA62*%
X143500000Y-131000000D03*
X143500000Y-128857143D03*
X143500000Y-126714286D03*
X143500000Y-124571429D03*
X143500000Y-122428571D03*
X143500000Y-120285714D03*
X143500000Y-118142857D03*
X143500000Y-116000000D03*
X127500000Y-116000000D03*
X127500000Y-118142857D03*
X127500000Y-120285714D03*
X127500000Y-122428571D03*
X127500000Y-124571429D03*
X127500000Y-126714286D03*
X127500000Y-128857143D03*
X127500000Y-131000000D03*
%TD*%
D12*
%TO.C,C1 10u*%
X127900000Y-98000000D03*
X126000000Y-98000000D03*
%TD*%
D14*
%TO.C,100n*%
X147400000Y-128800000D03*
X147400000Y-126725000D03*
%TD*%
D15*
%TO.C,10k*%
X148100000Y-121800000D03*
X146100000Y-121800000D03*
%TD*%
D12*
%TO.C,C-10u*%
X132950000Y-113100000D03*
X131050000Y-113100000D03*
%TD*%
D16*
%TO.C,LC76G GPS*%
X136000000Y-70500000D03*
D17*
X134333333Y-70500000D03*
X132666667Y-70500000D03*
X131000000Y-70500000D03*
%TD*%
D10*
%TO.C,U2*%
X113936000Y-100992000D03*
D11*
X113936000Y-103532000D03*
X113936000Y-106072000D03*
X113936000Y-108612000D03*
X113936000Y-111152000D03*
X113936000Y-113692000D03*
X113936000Y-116232000D03*
X113936000Y-118772000D03*
D10*
X117500000Y-101000000D03*
D11*
X117500000Y-103540000D03*
X117500000Y-106080000D03*
X117500000Y-108620000D03*
X117500000Y-111160000D03*
X117500000Y-113700000D03*
X117500000Y-116240000D03*
X117500000Y-118780000D03*
%TD*%
M02*
