%TF.GenerationSoftware,KiCad,Pcbnew,10.0.4*%
%TF.CreationDate,2026-09-07T20:42:07+12:00*%
%TF.ProjectId,ESP32 vario,45535033-3220-4766-9172-696f2e6b6963,rev?*%
%TF.SameCoordinates,Original*%
%TF.FileFunction,Legend,Top*%
%TF.FilePolarity,Positive*%
%FSLAX46Y46*%
G04 Gerber Fmt 4.6, Leading zero omitted, Abs format (unit mm)*
G04 Created by KiCad (PCBNEW 10.0.4) date 2026-09-07 20:42:07*
%MOMM*%
%LPD*%
G01*
G04 APERTURE LIST*
%ADD10C,0.150000*%
%ADD11C,0.100000*%
%ADD12C,0.120000*%
G04 APERTURE END LIST*
D10*
X162843142Y-82304819D02*
X162366952Y-82304819D01*
X162366952Y-82304819D02*
X162366952Y-81304819D01*
X163747904Y-82209580D02*
X163700285Y-82257200D01*
X163700285Y-82257200D02*
X163557428Y-82304819D01*
X163557428Y-82304819D02*
X163462190Y-82304819D01*
X163462190Y-82304819D02*
X163319333Y-82257200D01*
X163319333Y-82257200D02*
X163224095Y-82161961D01*
X163224095Y-82161961D02*
X163176476Y-82066723D01*
X163176476Y-82066723D02*
X163128857Y-81876247D01*
X163128857Y-81876247D02*
X163128857Y-81733390D01*
X163128857Y-81733390D02*
X163176476Y-81542914D01*
X163176476Y-81542914D02*
X163224095Y-81447676D01*
X163224095Y-81447676D02*
X163319333Y-81352438D01*
X163319333Y-81352438D02*
X163462190Y-81304819D01*
X163462190Y-81304819D02*
X163557428Y-81304819D01*
X163557428Y-81304819D02*
X163700285Y-81352438D01*
X163700285Y-81352438D02*
X163747904Y-81400057D01*
X164081238Y-81304819D02*
X164747904Y-81304819D01*
X164747904Y-81304819D02*
X164319333Y-82304819D01*
X165557428Y-81304819D02*
X165366952Y-81304819D01*
X165366952Y-81304819D02*
X165271714Y-81352438D01*
X165271714Y-81352438D02*
X165224095Y-81400057D01*
X165224095Y-81400057D02*
X165128857Y-81542914D01*
X165128857Y-81542914D02*
X165081238Y-81733390D01*
X165081238Y-81733390D02*
X165081238Y-82114342D01*
X165081238Y-82114342D02*
X165128857Y-82209580D01*
X165128857Y-82209580D02*
X165176476Y-82257200D01*
X165176476Y-82257200D02*
X165271714Y-82304819D01*
X165271714Y-82304819D02*
X165462190Y-82304819D01*
X165462190Y-82304819D02*
X165557428Y-82257200D01*
X165557428Y-82257200D02*
X165605047Y-82209580D01*
X165605047Y-82209580D02*
X165652666Y-82114342D01*
X165652666Y-82114342D02*
X165652666Y-81876247D01*
X165652666Y-81876247D02*
X165605047Y-81781009D01*
X165605047Y-81781009D02*
X165557428Y-81733390D01*
X165557428Y-81733390D02*
X165462190Y-81685771D01*
X165462190Y-81685771D02*
X165271714Y-81685771D01*
X165271714Y-81685771D02*
X165176476Y-81733390D01*
X165176476Y-81733390D02*
X165128857Y-81781009D01*
X165128857Y-81781009D02*
X165081238Y-81876247D01*
X166605047Y-81352438D02*
X166509809Y-81304819D01*
X166509809Y-81304819D02*
X166366952Y-81304819D01*
X166366952Y-81304819D02*
X166224095Y-81352438D01*
X166224095Y-81352438D02*
X166128857Y-81447676D01*
X166128857Y-81447676D02*
X166081238Y-81542914D01*
X166081238Y-81542914D02*
X166033619Y-81733390D01*
X166033619Y-81733390D02*
X166033619Y-81876247D01*
X166033619Y-81876247D02*
X166081238Y-82066723D01*
X166081238Y-82066723D02*
X166128857Y-82161961D01*
X166128857Y-82161961D02*
X166224095Y-82257200D01*
X166224095Y-82257200D02*
X166366952Y-82304819D01*
X166366952Y-82304819D02*
X166462190Y-82304819D01*
X166462190Y-82304819D02*
X166605047Y-82257200D01*
X166605047Y-82257200D02*
X166652666Y-82209580D01*
X166652666Y-82209580D02*
X166652666Y-81876247D01*
X166652666Y-81876247D02*
X166462190Y-81876247D01*
X148200000Y-112647342D02*
X148200000Y-111447342D01*
X148200000Y-112018771D02*
X148885714Y-112018771D01*
X148885714Y-112647342D02*
X148885714Y-111447342D01*
X149285714Y-111447342D02*
X149971429Y-111447342D01*
X149628571Y-112647342D02*
X149628571Y-111447342D01*
X150371429Y-112190200D02*
X151285715Y-112190200D01*
X152542857Y-112647342D02*
X152142857Y-112075914D01*
X151857143Y-112647342D02*
X151857143Y-111447342D01*
X151857143Y-111447342D02*
X152314286Y-111447342D01*
X152314286Y-111447342D02*
X152428571Y-111504485D01*
X152428571Y-111504485D02*
X152485714Y-111561628D01*
X152485714Y-111561628D02*
X152542857Y-111675914D01*
X152542857Y-111675914D02*
X152542857Y-111847342D01*
X152542857Y-111847342D02*
X152485714Y-111961628D01*
X152485714Y-111961628D02*
X152428571Y-112018771D01*
X152428571Y-112018771D02*
X152314286Y-112075914D01*
X152314286Y-112075914D02*
X151857143Y-112075914D01*
X153000000Y-112304485D02*
X153571429Y-112304485D01*
X152885714Y-112647342D02*
X153285714Y-111447342D01*
X153285714Y-111447342D02*
X153685714Y-112647342D01*
X154600000Y-111447342D02*
X154371428Y-111447342D01*
X154371428Y-111447342D02*
X154257142Y-111504485D01*
X154257142Y-111504485D02*
X154200000Y-111561628D01*
X154200000Y-111561628D02*
X154085714Y-111733057D01*
X154085714Y-111733057D02*
X154028571Y-111961628D01*
X154028571Y-111961628D02*
X154028571Y-112418771D01*
X154028571Y-112418771D02*
X154085714Y-112533057D01*
X154085714Y-112533057D02*
X154142857Y-112590200D01*
X154142857Y-112590200D02*
X154257142Y-112647342D01*
X154257142Y-112647342D02*
X154485714Y-112647342D01*
X154485714Y-112647342D02*
X154600000Y-112590200D01*
X154600000Y-112590200D02*
X154657142Y-112533057D01*
X154657142Y-112533057D02*
X154714285Y-112418771D01*
X154714285Y-112418771D02*
X154714285Y-112133057D01*
X154714285Y-112133057D02*
X154657142Y-112018771D01*
X154657142Y-112018771D02*
X154600000Y-111961628D01*
X154600000Y-111961628D02*
X154485714Y-111904485D01*
X154485714Y-111904485D02*
X154257142Y-111904485D01*
X154257142Y-111904485D02*
X154142857Y-111961628D01*
X154142857Y-111961628D02*
X154085714Y-112018771D01*
X154085714Y-112018771D02*
X154028571Y-112133057D01*
X155171428Y-111561628D02*
X155228571Y-111504485D01*
X155228571Y-111504485D02*
X155342857Y-111447342D01*
X155342857Y-111447342D02*
X155628571Y-111447342D01*
X155628571Y-111447342D02*
X155742857Y-111504485D01*
X155742857Y-111504485D02*
X155799999Y-111561628D01*
X155799999Y-111561628D02*
X155857142Y-111675914D01*
X155857142Y-111675914D02*
X155857142Y-111790200D01*
X155857142Y-111790200D02*
X155799999Y-111961628D01*
X155799999Y-111961628D02*
X155114285Y-112647342D01*
X155114285Y-112647342D02*
X155857142Y-112647342D01*
X165419333Y-97509580D02*
X165371714Y-97557200D01*
X165371714Y-97557200D02*
X165228857Y-97604819D01*
X165228857Y-97604819D02*
X165133619Y-97604819D01*
X165133619Y-97604819D02*
X164990762Y-97557200D01*
X164990762Y-97557200D02*
X164895524Y-97461961D01*
X164895524Y-97461961D02*
X164847905Y-97366723D01*
X164847905Y-97366723D02*
X164800286Y-97176247D01*
X164800286Y-97176247D02*
X164800286Y-97033390D01*
X164800286Y-97033390D02*
X164847905Y-96842914D01*
X164847905Y-96842914D02*
X164895524Y-96747676D01*
X164895524Y-96747676D02*
X164990762Y-96652438D01*
X164990762Y-96652438D02*
X165133619Y-96604819D01*
X165133619Y-96604819D02*
X165228857Y-96604819D01*
X165228857Y-96604819D02*
X165371714Y-96652438D01*
X165371714Y-96652438D02*
X165419333Y-96700057D01*
X165800286Y-96700057D02*
X165847905Y-96652438D01*
X165847905Y-96652438D02*
X165943143Y-96604819D01*
X165943143Y-96604819D02*
X166181238Y-96604819D01*
X166181238Y-96604819D02*
X166276476Y-96652438D01*
X166276476Y-96652438D02*
X166324095Y-96700057D01*
X166324095Y-96700057D02*
X166371714Y-96795295D01*
X166371714Y-96795295D02*
X166371714Y-96890533D01*
X166371714Y-96890533D02*
X166324095Y-97033390D01*
X166324095Y-97033390D02*
X165752667Y-97604819D01*
X165752667Y-97604819D02*
X166371714Y-97604819D01*
X139149095Y-104421819D02*
X139149095Y-105231342D01*
X139149095Y-105231342D02*
X139196714Y-105326580D01*
X139196714Y-105326580D02*
X139244333Y-105374200D01*
X139244333Y-105374200D02*
X139339571Y-105421819D01*
X139339571Y-105421819D02*
X139530047Y-105421819D01*
X139530047Y-105421819D02*
X139625285Y-105374200D01*
X139625285Y-105374200D02*
X139672904Y-105326580D01*
X139672904Y-105326580D02*
X139720523Y-105231342D01*
X139720523Y-105231342D02*
X139720523Y-104421819D01*
X140149095Y-104517057D02*
X140196714Y-104469438D01*
X140196714Y-104469438D02*
X140291952Y-104421819D01*
X140291952Y-104421819D02*
X140530047Y-104421819D01*
X140530047Y-104421819D02*
X140625285Y-104469438D01*
X140625285Y-104469438D02*
X140672904Y-104517057D01*
X140672904Y-104517057D02*
X140720523Y-104612295D01*
X140720523Y-104612295D02*
X140720523Y-104707533D01*
X140720523Y-104707533D02*
X140672904Y-104850390D01*
X140672904Y-104850390D02*
X140101476Y-105421819D01*
X140101476Y-105421819D02*
X140720523Y-105421819D01*
X156183142Y-104393247D02*
X156297428Y-104431342D01*
X156297428Y-104431342D02*
X156335523Y-104469438D01*
X156335523Y-104469438D02*
X156373619Y-104545628D01*
X156373619Y-104545628D02*
X156373619Y-104659914D01*
X156373619Y-104659914D02*
X156335523Y-104736104D01*
X156335523Y-104736104D02*
X156297428Y-104774200D01*
X156297428Y-104774200D02*
X156221238Y-104812295D01*
X156221238Y-104812295D02*
X155916476Y-104812295D01*
X155916476Y-104812295D02*
X155916476Y-104012295D01*
X155916476Y-104012295D02*
X156183142Y-104012295D01*
X156183142Y-104012295D02*
X156259333Y-104050390D01*
X156259333Y-104050390D02*
X156297428Y-104088485D01*
X156297428Y-104088485D02*
X156335523Y-104164676D01*
X156335523Y-104164676D02*
X156335523Y-104240866D01*
X156335523Y-104240866D02*
X156297428Y-104317057D01*
X156297428Y-104317057D02*
X156259333Y-104355152D01*
X156259333Y-104355152D02*
X156183142Y-104393247D01*
X156183142Y-104393247D02*
X155916476Y-104393247D01*
X156716476Y-104812295D02*
X156716476Y-104012295D01*
X156716476Y-104012295D02*
X156983142Y-104583723D01*
X156983142Y-104583723D02*
X157249809Y-104012295D01*
X157249809Y-104012295D02*
X157249809Y-104812295D01*
X157630762Y-104812295D02*
X157630762Y-104012295D01*
X157630762Y-104012295D02*
X157935524Y-104012295D01*
X157935524Y-104012295D02*
X158011714Y-104050390D01*
X158011714Y-104050390D02*
X158049809Y-104088485D01*
X158049809Y-104088485D02*
X158087905Y-104164676D01*
X158087905Y-104164676D02*
X158087905Y-104278961D01*
X158087905Y-104278961D02*
X158049809Y-104355152D01*
X158049809Y-104355152D02*
X158011714Y-104393247D01*
X158011714Y-104393247D02*
X157935524Y-104431342D01*
X157935524Y-104431342D02*
X157630762Y-104431342D01*
X158811714Y-104012295D02*
X158430762Y-104012295D01*
X158430762Y-104012295D02*
X158392666Y-104393247D01*
X158392666Y-104393247D02*
X158430762Y-104355152D01*
X158430762Y-104355152D02*
X158506952Y-104317057D01*
X158506952Y-104317057D02*
X158697428Y-104317057D01*
X158697428Y-104317057D02*
X158773619Y-104355152D01*
X158773619Y-104355152D02*
X158811714Y-104393247D01*
X158811714Y-104393247D02*
X158849809Y-104469438D01*
X158849809Y-104469438D02*
X158849809Y-104659914D01*
X158849809Y-104659914D02*
X158811714Y-104736104D01*
X158811714Y-104736104D02*
X158773619Y-104774200D01*
X158773619Y-104774200D02*
X158697428Y-104812295D01*
X158697428Y-104812295D02*
X158506952Y-104812295D01*
X158506952Y-104812295D02*
X158430762Y-104774200D01*
X158430762Y-104774200D02*
X158392666Y-104736104D01*
X159306952Y-104355152D02*
X159230762Y-104317057D01*
X159230762Y-104317057D02*
X159192667Y-104278961D01*
X159192667Y-104278961D02*
X159154571Y-104202771D01*
X159154571Y-104202771D02*
X159154571Y-104164676D01*
X159154571Y-104164676D02*
X159192667Y-104088485D01*
X159192667Y-104088485D02*
X159230762Y-104050390D01*
X159230762Y-104050390D02*
X159306952Y-104012295D01*
X159306952Y-104012295D02*
X159459333Y-104012295D01*
X159459333Y-104012295D02*
X159535524Y-104050390D01*
X159535524Y-104050390D02*
X159573619Y-104088485D01*
X159573619Y-104088485D02*
X159611714Y-104164676D01*
X159611714Y-104164676D02*
X159611714Y-104202771D01*
X159611714Y-104202771D02*
X159573619Y-104278961D01*
X159573619Y-104278961D02*
X159535524Y-104317057D01*
X159535524Y-104317057D02*
X159459333Y-104355152D01*
X159459333Y-104355152D02*
X159306952Y-104355152D01*
X159306952Y-104355152D02*
X159230762Y-104393247D01*
X159230762Y-104393247D02*
X159192667Y-104431342D01*
X159192667Y-104431342D02*
X159154571Y-104507533D01*
X159154571Y-104507533D02*
X159154571Y-104659914D01*
X159154571Y-104659914D02*
X159192667Y-104736104D01*
X159192667Y-104736104D02*
X159230762Y-104774200D01*
X159230762Y-104774200D02*
X159306952Y-104812295D01*
X159306952Y-104812295D02*
X159459333Y-104812295D01*
X159459333Y-104812295D02*
X159535524Y-104774200D01*
X159535524Y-104774200D02*
X159573619Y-104736104D01*
X159573619Y-104736104D02*
X159611714Y-104659914D01*
X159611714Y-104659914D02*
X159611714Y-104507533D01*
X159611714Y-104507533D02*
X159573619Y-104431342D01*
X159573619Y-104431342D02*
X159535524Y-104393247D01*
X159535524Y-104393247D02*
X159459333Y-104355152D01*
X160106953Y-104012295D02*
X160183143Y-104012295D01*
X160183143Y-104012295D02*
X160259334Y-104050390D01*
X160259334Y-104050390D02*
X160297429Y-104088485D01*
X160297429Y-104088485D02*
X160335524Y-104164676D01*
X160335524Y-104164676D02*
X160373619Y-104317057D01*
X160373619Y-104317057D02*
X160373619Y-104507533D01*
X160373619Y-104507533D02*
X160335524Y-104659914D01*
X160335524Y-104659914D02*
X160297429Y-104736104D01*
X160297429Y-104736104D02*
X160259334Y-104774200D01*
X160259334Y-104774200D02*
X160183143Y-104812295D01*
X160183143Y-104812295D02*
X160106953Y-104812295D01*
X160106953Y-104812295D02*
X160030762Y-104774200D01*
X160030762Y-104774200D02*
X159992667Y-104736104D01*
X159992667Y-104736104D02*
X159954572Y-104659914D01*
X159954572Y-104659914D02*
X159916476Y-104507533D01*
X159916476Y-104507533D02*
X159916476Y-104317057D01*
X159916476Y-104317057D02*
X159954572Y-104164676D01*
X159954572Y-104164676D02*
X159992667Y-104088485D01*
X159992667Y-104088485D02*
X160030762Y-104050390D01*
X160030762Y-104050390D02*
X160106953Y-104012295D01*
X164619333Y-122004819D02*
X164286000Y-121528628D01*
X164047905Y-122004819D02*
X164047905Y-121004819D01*
X164047905Y-121004819D02*
X164428857Y-121004819D01*
X164428857Y-121004819D02*
X164524095Y-121052438D01*
X164524095Y-121052438D02*
X164571714Y-121100057D01*
X164571714Y-121100057D02*
X164619333Y-121195295D01*
X164619333Y-121195295D02*
X164619333Y-121338152D01*
X164619333Y-121338152D02*
X164571714Y-121433390D01*
X164571714Y-121433390D02*
X164524095Y-121481009D01*
X164524095Y-121481009D02*
X164428857Y-121528628D01*
X164428857Y-121528628D02*
X164047905Y-121528628D01*
X165571714Y-122004819D02*
X165000286Y-122004819D01*
X165286000Y-122004819D02*
X165286000Y-121004819D01*
X165286000Y-121004819D02*
X165190762Y-121147676D01*
X165190762Y-121147676D02*
X165095524Y-121242914D01*
X165095524Y-121242914D02*
X165000286Y-121290533D01*
X163219333Y-130272080D02*
X163171714Y-130319700D01*
X163171714Y-130319700D02*
X163028857Y-130367319D01*
X163028857Y-130367319D02*
X162933619Y-130367319D01*
X162933619Y-130367319D02*
X162790762Y-130319700D01*
X162790762Y-130319700D02*
X162695524Y-130224461D01*
X162695524Y-130224461D02*
X162647905Y-130129223D01*
X162647905Y-130129223D02*
X162600286Y-129938747D01*
X162600286Y-129938747D02*
X162600286Y-129795890D01*
X162600286Y-129795890D02*
X162647905Y-129605414D01*
X162647905Y-129605414D02*
X162695524Y-129510176D01*
X162695524Y-129510176D02*
X162790762Y-129414938D01*
X162790762Y-129414938D02*
X162933619Y-129367319D01*
X162933619Y-129367319D02*
X163028857Y-129367319D01*
X163028857Y-129367319D02*
X163171714Y-129414938D01*
X163171714Y-129414938D02*
X163219333Y-129462557D01*
X163552667Y-129367319D02*
X164171714Y-129367319D01*
X164171714Y-129367319D02*
X163838381Y-129748271D01*
X163838381Y-129748271D02*
X163981238Y-129748271D01*
X163981238Y-129748271D02*
X164076476Y-129795890D01*
X164076476Y-129795890D02*
X164124095Y-129843509D01*
X164124095Y-129843509D02*
X164171714Y-129938747D01*
X164171714Y-129938747D02*
X164171714Y-130176842D01*
X164171714Y-130176842D02*
X164124095Y-130272080D01*
X164124095Y-130272080D02*
X164076476Y-130319700D01*
X164076476Y-130319700D02*
X163981238Y-130367319D01*
X163981238Y-130367319D02*
X163695524Y-130367319D01*
X163695524Y-130367319D02*
X163600286Y-130319700D01*
X163600286Y-130319700D02*
X163552667Y-130272080D01*
X166319333Y-130809580D02*
X166271714Y-130857200D01*
X166271714Y-130857200D02*
X166128857Y-130904819D01*
X166128857Y-130904819D02*
X166033619Y-130904819D01*
X166033619Y-130904819D02*
X165890762Y-130857200D01*
X165890762Y-130857200D02*
X165795524Y-130761961D01*
X165795524Y-130761961D02*
X165747905Y-130666723D01*
X165747905Y-130666723D02*
X165700286Y-130476247D01*
X165700286Y-130476247D02*
X165700286Y-130333390D01*
X165700286Y-130333390D02*
X165747905Y-130142914D01*
X165747905Y-130142914D02*
X165795524Y-130047676D01*
X165795524Y-130047676D02*
X165890762Y-129952438D01*
X165890762Y-129952438D02*
X166033619Y-129904819D01*
X166033619Y-129904819D02*
X166128857Y-129904819D01*
X166128857Y-129904819D02*
X166271714Y-129952438D01*
X166271714Y-129952438D02*
X166319333Y-130000057D01*
X167271714Y-130904819D02*
X166700286Y-130904819D01*
X166986000Y-130904819D02*
X166986000Y-129904819D01*
X166986000Y-129904819D02*
X166890762Y-130047676D01*
X166890762Y-130047676D02*
X166795524Y-130142914D01*
X166795524Y-130142914D02*
X166700286Y-130190533D01*
X158126476Y-87416104D02*
X158088380Y-87454200D01*
X158088380Y-87454200D02*
X157974095Y-87492295D01*
X157974095Y-87492295D02*
X157897904Y-87492295D01*
X157897904Y-87492295D02*
X157783618Y-87454200D01*
X157783618Y-87454200D02*
X157707428Y-87378009D01*
X157707428Y-87378009D02*
X157669333Y-87301819D01*
X157669333Y-87301819D02*
X157631237Y-87149438D01*
X157631237Y-87149438D02*
X157631237Y-87035152D01*
X157631237Y-87035152D02*
X157669333Y-86882771D01*
X157669333Y-86882771D02*
X157707428Y-86806580D01*
X157707428Y-86806580D02*
X157783618Y-86730390D01*
X157783618Y-86730390D02*
X157897904Y-86692295D01*
X157897904Y-86692295D02*
X157974095Y-86692295D01*
X157974095Y-86692295D02*
X158088380Y-86730390D01*
X158088380Y-86730390D02*
X158126476Y-86768485D01*
X158469333Y-87187533D02*
X159078857Y-87187533D01*
X159878856Y-86730390D02*
X159802666Y-86692295D01*
X159802666Y-86692295D02*
X159688380Y-86692295D01*
X159688380Y-86692295D02*
X159574094Y-86730390D01*
X159574094Y-86730390D02*
X159497904Y-86806580D01*
X159497904Y-86806580D02*
X159459809Y-86882771D01*
X159459809Y-86882771D02*
X159421713Y-87035152D01*
X159421713Y-87035152D02*
X159421713Y-87149438D01*
X159421713Y-87149438D02*
X159459809Y-87301819D01*
X159459809Y-87301819D02*
X159497904Y-87378009D01*
X159497904Y-87378009D02*
X159574094Y-87454200D01*
X159574094Y-87454200D02*
X159688380Y-87492295D01*
X159688380Y-87492295D02*
X159764571Y-87492295D01*
X159764571Y-87492295D02*
X159878856Y-87454200D01*
X159878856Y-87454200D02*
X159916952Y-87416104D01*
X159916952Y-87416104D02*
X159916952Y-87149438D01*
X159916952Y-87149438D02*
X159764571Y-87149438D01*
X160259809Y-87492295D02*
X160259809Y-86692295D01*
X160259809Y-86692295D02*
X160564571Y-86692295D01*
X160564571Y-86692295D02*
X160640761Y-86730390D01*
X160640761Y-86730390D02*
X160678856Y-86768485D01*
X160678856Y-86768485D02*
X160716952Y-86844676D01*
X160716952Y-86844676D02*
X160716952Y-86958961D01*
X160716952Y-86958961D02*
X160678856Y-87035152D01*
X160678856Y-87035152D02*
X160640761Y-87073247D01*
X160640761Y-87073247D02*
X160564571Y-87111342D01*
X160564571Y-87111342D02*
X160259809Y-87111342D01*
X161021713Y-87454200D02*
X161135999Y-87492295D01*
X161135999Y-87492295D02*
X161326475Y-87492295D01*
X161326475Y-87492295D02*
X161402666Y-87454200D01*
X161402666Y-87454200D02*
X161440761Y-87416104D01*
X161440761Y-87416104D02*
X161478856Y-87339914D01*
X161478856Y-87339914D02*
X161478856Y-87263723D01*
X161478856Y-87263723D02*
X161440761Y-87187533D01*
X161440761Y-87187533D02*
X161402666Y-87149438D01*
X161402666Y-87149438D02*
X161326475Y-87111342D01*
X161326475Y-87111342D02*
X161174094Y-87073247D01*
X161174094Y-87073247D02*
X161097904Y-87035152D01*
X161097904Y-87035152D02*
X161059809Y-86997057D01*
X161059809Y-86997057D02*
X161021713Y-86920866D01*
X161021713Y-86920866D02*
X161021713Y-86844676D01*
X161021713Y-86844676D02*
X161059809Y-86768485D01*
X161059809Y-86768485D02*
X161097904Y-86730390D01*
X161097904Y-86730390D02*
X161174094Y-86692295D01*
X161174094Y-86692295D02*
X161364571Y-86692295D01*
X161364571Y-86692295D02*
X161478856Y-86730390D01*
X162240761Y-87492295D02*
X161783618Y-87492295D01*
X162012190Y-87492295D02*
X162012190Y-86692295D01*
X162012190Y-86692295D02*
X161935999Y-86806580D01*
X161935999Y-86806580D02*
X161859809Y-86882771D01*
X161859809Y-86882771D02*
X161783618Y-86920866D01*
%TO.C,LC76G*%
D11*
X154919333Y-80750000D02*
X161519333Y-80750000D01*
X161519333Y-82350000D01*
X154919333Y-82350000D01*
X154919333Y-80750000D01*
%TO.C,HT-RA62*%
D12*
X144686000Y-114250000D02*
X144686000Y-114750000D01*
X158686000Y-114250000D02*
X158686000Y-114750000D01*
X144686000Y-131250000D02*
X144686000Y-130750000D01*
X158686000Y-131250000D02*
X158686000Y-130750000D01*
X158686000Y-114250000D02*
X144686000Y-114250000D01*
X158686000Y-131250000D02*
X144686000Y-131250000D01*
%TO.C,C2*%
X168474748Y-96515000D02*
X168997252Y-96515000D01*
X168474748Y-97985000D02*
X168997252Y-97985000D01*
%TO.C,U2*%
D11*
X136036000Y-80592000D02*
X143436000Y-80592000D01*
X143436000Y-101992000D01*
X136036000Y-101992000D01*
X136036000Y-80592000D01*
%TO.C,BMP580*%
D12*
X169266000Y-99970000D02*
X169266000Y-101350000D01*
X167886000Y-99970000D02*
X169266000Y-99970000D01*
X166616000Y-99970000D02*
X148726000Y-99970000D01*
X166616000Y-99970000D02*
X166616000Y-102730000D01*
X148726000Y-99970000D02*
X148726000Y-102730000D01*
X166616000Y-102730000D02*
X148726000Y-102730000D01*
%TO.C,R1*%
X164913064Y-124085000D02*
X164458936Y-124085000D01*
X164913064Y-122615000D02*
X164458936Y-122615000D01*
%TO.C,C3*%
X162751000Y-127173752D02*
X162751000Y-126651248D01*
X164221000Y-127173752D02*
X164221000Y-126651248D01*
%TO.C,C1*%
X165651000Y-127261252D02*
X165651000Y-126738748D01*
X167121000Y-127261252D02*
X167121000Y-126738748D01*
%TO.C,C-GPS1*%
X160197252Y-86185000D02*
X159674748Y-86185000D01*
X160197252Y-84715000D02*
X159674748Y-84715000D01*
%TD*%
M02*
