%TF.GenerationSoftware,KiCad,Pcbnew,10.0.4*%
%TF.CreationDate,2026-09-07T20:42:07+12:00*%
%TF.ProjectId,ESP32 vario,45535033-3220-4766-9172-696f2e6b6963,rev?*%
%TF.SameCoordinates,Original*%
%TF.FileFunction,Soldermask,Top*%
%TF.FilePolarity,Negative*%
%FSLAX46Y46*%
G04 Gerber Fmt 4.6, Leading zero omitted, Abs format (unit mm)*
G04 Created by KiCad (PCBNEW 10.0.4) date 2026-09-07 20:42:07*
%MOMM*%
%LPD*%
G01*
G04 APERTURE LIST*
G04 Aperture macros list*
%AMRoundRect*
0 Rectangle with rounded corners*
0 $1 Rounding radius*
0 $2 $3 $4 $5 $6 $7 $8 $9 X,Y pos of 4 corners*
0 Add a 4 corners polygon primitive as box body*
4,1,4,$2,$3,$4,$5,$6,$7,$8,$9,$2,$3,0*
0 Add four circle primitives for the rounded corners*
1,1,$1+$1,$2,$3*
1,1,$1+$1,$4,$5*
1,1,$1+$1,$6,$7*
1,1,$1+$1,$8,$9*
0 Add four rect primitives between the rounded corners*
20,1,$1+$1,$2,$3,$4,$5,0*
20,1,$1+$1,$4,$5,$6,$7,0*
20,1,$1+$1,$6,$7,$8,$9,0*
20,1,$1+$1,$8,$9,$2,$3,0*%
G04 Aperture macros list end*
%ADD10C,1.000000*%
%ADD11R,1.000000X1.000000*%
%ADD12RoundRect,0.225000X0.675000X0.525000X-0.675000X0.525000X-0.675000X-0.525000X0.675000X-0.525000X0*%
%ADD13RoundRect,0.250000X-0.250000X-0.475000X0.250000X-0.475000X0.250000X0.475000X-0.250000X0.475000X0*%
%ADD14R,1.700000X1.700000*%
%ADD15C,1.700000*%
%ADD16RoundRect,0.250000X0.350000X0.450000X-0.350000X0.450000X-0.350000X-0.450000X0.350000X-0.450000X0*%
%ADD17RoundRect,0.250000X0.475000X-0.337500X0.475000X0.337500X-0.475000X0.337500X-0.475000X-0.337500X0*%
%ADD18RoundRect,0.250000X0.475000X-0.250000X0.475000X0.250000X-0.475000X0.250000X-0.475000X-0.250000X0*%
%ADD19RoundRect,0.250000X0.250000X0.475000X-0.250000X0.475000X-0.250000X-0.475000X0.250000X-0.475000X0*%
G04 APERTURE END LIST*
D10*
%TO.C,LC76G*%
X155819333Y-81550000D03*
X157486000Y-81550000D03*
X159152666Y-81550000D03*
D11*
X160819333Y-81550000D03*
%TD*%
D12*
%TO.C,HT-RA62*%
X143686000Y-129750000D03*
X143686000Y-127750000D03*
X143686000Y-125750000D03*
X143686000Y-123750000D03*
X143686000Y-121750000D03*
X143686000Y-119750000D03*
X143686000Y-117750000D03*
X143686000Y-115750000D03*
X159686000Y-115750000D03*
X159686000Y-117750000D03*
X159686000Y-119750000D03*
X159686000Y-121750000D03*
X159686000Y-123750000D03*
X159686000Y-125750000D03*
X159686000Y-127750000D03*
X159686000Y-129750000D03*
%TD*%
D13*
%TO.C,C2*%
X167786000Y-97250000D03*
X169686000Y-97250000D03*
%TD*%
D14*
%TO.C,U2*%
X138136000Y-82492000D03*
D15*
X138136000Y-85032000D03*
X138136000Y-87572000D03*
X138136000Y-90112000D03*
X138136000Y-92652000D03*
X138136000Y-95192000D03*
X138136000Y-97732000D03*
X138136000Y-100272000D03*
D14*
X141700000Y-82500000D03*
D15*
X141700000Y-85040000D03*
X141700000Y-87580000D03*
X141700000Y-90120000D03*
X141700000Y-92660000D03*
X141700000Y-95200000D03*
X141700000Y-97740000D03*
X141700000Y-100280000D03*
%TD*%
D14*
%TO.C,BMP580*%
X167886000Y-101350000D03*
D15*
X165346000Y-101350000D03*
X162806000Y-101350000D03*
X160266000Y-101350000D03*
X157726000Y-101350000D03*
X155186000Y-101350000D03*
X152646000Y-101350000D03*
X150106000Y-101350000D03*
%TD*%
D16*
%TO.C,R1*%
X165686000Y-123350000D03*
X163686000Y-123350000D03*
%TD*%
D17*
%TO.C,C3*%
X163486000Y-127950000D03*
X163486000Y-125875000D03*
%TD*%
D18*
%TO.C,C1*%
X166386000Y-127950000D03*
X166386000Y-126050000D03*
%TD*%
D19*
%TO.C,C-GPS1*%
X160886000Y-85450000D03*
X158986000Y-85450000D03*
%TD*%
M02*
