M48
; DRILL file KiCad 10.0.4 date 2026-09-07T20:42:01
; FORMAT={-:-/ absolute / metric / decimal}
; #@! TF.CreationDate,2026-09-07T20:42:01+12:00
; #@! TF.GenerationSoftware,Kicad,Pcbnew,10.0.4
; #@! TF.FileFunction,Plated,1,2,PTH
FMAT,2
METRIC
; #@! TA.AperFunction,Plated,PTH,ViaDrill
T1C0.300
; #@! TA.AperFunction,Plated,PTH,ComponentDrill
T2C0.500
; #@! TA.AperFunction,Plated,PTH,ComponentDrill
T3C1.000
%
G90
G05
T1
X141.4Y-114.6
X145.7Y-129.8
X168.7Y-127.9
X169.7Y-95.6
T2
X155.819Y-81.55
X157.486Y-81.55
X159.153Y-81.55
X160.819Y-81.55
T3
X138.136Y-82.492
X138.136Y-85.032
X138.136Y-87.572
X138.136Y-90.112
X138.136Y-92.652
X138.136Y-95.192
X138.136Y-97.732
X138.136Y-100.272
X141.7Y-82.5
X141.7Y-85.04
X141.7Y-87.58
X141.7Y-90.12
X141.7Y-92.66
X141.7Y-95.2
X141.7Y-97.74
X141.7Y-100.28
X150.106Y-101.35
X152.646Y-101.35
X155.186Y-101.35
X157.726Y-101.35
X160.266Y-101.35
X162.806Y-101.35
X165.346Y-101.35
X167.886Y-101.35
M30
